<svg width="284" height="287" viewBox="0 0 284 287" fill="none" xmlns="http://www.w3.org/2000/svg">
<path fill-rule="evenodd" clip-rule="evenodd" d="M244.127 43.9394C276.891 74.9681 286.043 121.242 283.637 166.232C281.332 209.342 268.457 255.194 231.62 277.85C197.354 298.925 156.257 278.309 117.181 268.611C77.6347 258.797 30.351 258.374 10.3742 222.943C-10.8469 185.305 4.20741 139.612 22.3495 100.419C41.7661 58.473 67.0252 15.0272 111.908 3.59692C158.882 -8.36579 208.961 10.6348 244.127 43.9394Z" fill="#E4F6FF"/>
<path d="M170.989 27.6662C172.642 27.3075 174.333 27.9424 175.888 28.6026C205.659 41.2373 228.888 68.2276 236.874 99.4636C244.86 130.7 237.421 165.469 217.343 190.748C197.266 216.027 165.007 231.239 132.651 230.686C131.993 234.429 131.336 238.172 130.678 241.915C130.677 238.743 130.626 235.385 128.955 232.685C127.284 229.984 123.368 228.402 120.809 230.29C117.312 234.45 120.015 241.987 125.366 243C124.319 245.445 120.283 244.683 118.927 242.394C117.57 240.105 117.878 237.255 117.669 234.605C117.46 231.956 116.232 228.909 113.615 228.389C105.846 226.845 98.2263 224.559 90.8942 221.572C86.1489 219.639 80.6795 215.842 81.7916 210.857C82.6129 207.174 86.987 205.203 90.7411 205.698C94.4952 206.193 97.7337 208.474 100.802 210.685C102.402 205.176 104.003 199.667 105.603 194.159C100.566 194.391 99.1519 187.04 94.9075 184.328C75.4889 171.919 62.5438 149.986 61.1023 127.05C59.6608 104.115 69.7586 80.7452 87.4719 66.0211C105.185 51.297 130.076 45.5829 152.473 51.0991C155.13 47.8431 160.098 46.7155 163.909 48.5034C167.473 46.6922 167.291 41.6683 166.843 37.7084C166.396 33.7486 167.081 28.5149 170.989 27.6662ZM108.143 212.442C106.676 210.824 108.115 211.781 108.115 211.781L108.143 212.624V213.01C108.143 213.01 104.587 211.639 102.879 211.084C132.088 220.912 166.079 215.195 190.429 196.359C214.779 177.523 228.754 146.134 226.425 115.514C224.095 84.8926 205.531 55.9601 178.61 40.9934C177.968 40.6365 177.249 40.2753 176.531 40.4306C175.608 40.6302 175.083 41.5778 174.678 42.4273C173.327 45.2586 171.975 48.0898 170.624 50.921C173.807 52.7829 175.508 56.8497 174.593 60.412C192.811 71.9128 205.497 91.7266 208.283 113.03C211.068 134.333 203.9 156.723 189.247 172.487C174.595 188.252 152.735 197.093 131.196 195.966C126.148 195.702 120.711 195.006 116.361 197.571C111.332 200.537 109.525 206.786 108.143 212.442Z" fill="white"/>
<path d="M100.771 80.3012C100.362 80.3068 100.184 80.8122 100.119 81.2151C99.8687 82.7481 99.6188 84.2812 99.3688 85.8143C101.293 85.775 103.462 85.6266 104.713 84.1707C102.99 83.8815 101.701 82.026 102.038 80.3175C102.651 81.2607 103.479 82.064 104.442 82.649C104.922 82.9404 105.476 83.2252 105.664 83.7526C105.974 84.6248 105.102 85.4312 104.341 85.9623C103.581 86.4934 102.73 87.34 103.089 88.1933C102.386 87.3853 101.355 86.8678 100.285 86.7845C99.6722 86.7368 98.9947 86.808 98.5046 86.4385C97.7147 85.843 97.9843 84.6043 98.4208 83.7185C98.8573 82.8327 99.3887 81.7824 98.8989 80.9247C98.5323 80.2827 97.6742 79.9658 97.4811 79.2528C97.1995 78.2132 98.4921 77.488 99.5395 77.2217C100.268 77.0363 101.036 76.8719 101.766 77.0524C102.496 77.2328 103.169 77.8639 103.141 78.6126C102.794 79.5824 101.805 80.2871 100.771 80.3012ZM102.48 78.3161C101.434 77.7265 100.039 77.8204 99.0826 78.5449C98.7685 78.7827 98.482 79.1991 98.6724 79.5433C100.036 79.6299 101.426 79.1818 102.48 78.3161Z" fill="black"/>
<path d="M176.365 135.032C175.904 134.85 175.496 134.541 175.197 134.148C176.309 133.664 177.22 132.741 177.687 131.626C177.984 130.917 179.047 130.904 179.686 131.335C180.324 131.766 180.723 132.469 181.305 132.974C181.886 133.479 182.854 133.732 183.387 133.177C184.008 132.529 185.214 133.051 185.53 133.89C185.846 134.729 185.569 135.661 185.29 136.513C185.129 137.008 184.952 137.526 184.565 137.876C184.179 138.226 183.511 138.327 183.154 137.947C181.751 136.457 178.95 136.699 177.825 138.407C176.7 137.732 176.085 136.31 176.365 135.032ZM178.394 132.733C177.39 133.744 177.049 135.355 177.559 136.684C177.676 136.99 178.07 137.316 178.273 137.058C179.207 135.875 180.908 135.357 182.345 135.819C182.617 135.906 182.859 135.548 182.782 135.274C182.704 135 182.447 134.822 182.207 134.667C181.18 134.002 180.153 133.338 179.126 132.673C179.007 132.596 178.875 132.515 178.733 132.529C178.599 132.542 178.489 132.637 178.394 132.733ZM183.925 137.553C184.344 136.594 184.628 135.577 184.766 134.54C184.797 134.31 184.683 133.966 184.469 134.054C183.198 134.64 182.891 136.613 183.925 137.553Z" fill="black"/>
<path d="M144.379 135.609C142.47 134.148 140.053 132.976 139.257 130.713C137.904 126.865 133.612 124.855 131.487 121.37C129.693 118.428 129.639 114.743 130.175 111.342C131.517 102.822 136.805 94.5366 144.904 91.4866C148.769 90.0312 152.987 89.8283 157.119 89.8706C160.674 89.907 164.35 90.1438 167.518 91.7531C170.685 93.3624 173.228 96.6747 172.895 100.201C172.761 101.62 172.182 102.981 172.155 104.406C172.083 108.31 175.922 111.002 179.318 112.955C182.592 114.838 185.867 116.721 189.141 118.605C190.831 119.576 191.062 121.869 191.097 123.812C191.195 129.126 191.292 134.44 191.389 139.754C191.408 140.816 191.426 141.895 191.151 142.921C190.853 144.028 190.231 145.017 189.617 145.987C183.497 155.651 176.856 165.792 166.529 170.768C164.268 171.857 161.884 172.667 159.507 173.474C157.286 174.228 155.065 174.982 152.844 175.737C151.203 176.294 149.511 176.858 147.781 176.76C146.05 176.662 144.249 175.74 143.641 174.123C143.288 173.184 143.373 172.143 143.52 171.151C144.022 167.775 145.202 164.5 146.97 161.577C149.437 157.497 150.92 152.739 150.633 147.985C150.346 143.231 148.169 138.512 144.379 135.609ZM136.776 124.343C141.374 128.603 145.46 133.411 148.918 138.632C150.109 140.431 151.237 142.302 151.872 144.362C153.104 148.355 152.372 152.711 150.948 156.641C149.525 160.57 147.438 164.228 145.858 168.098C144.983 170.24 144.441 173.108 146.278 174.523C147.789 175.688 149.96 175.083 151.754 174.43C154.446 173.45 157.138 172.47 159.83 171.49C162.064 170.677 164.304 169.861 166.425 168.789C176.117 163.89 182.322 154.26 188.062 145.067C188.582 144.234 189.107 143.388 189.377 142.446C189.658 141.465 189.648 140.429 189.636 139.41C189.583 134.915 189.529 130.419 189.476 125.924C189.457 124.342 189.423 122.697 188.705 121.286C187.425 118.77 184.437 117.754 181.868 116.568C178.012 114.788 174.563 112.142 171.852 108.883C171.153 108.043 170.484 107.124 170.269 106.054C169.887 104.152 171.003 102.283 171.169 100.351C171.441 97.1864 169.043 94.2729 166.152 92.9333C163.261 91.5936 159.966 91.4958 156.777 91.4705C153.754 91.4465 150.693 91.4712 147.768 92.2317C139.058 94.4964 133.097 103.146 131.819 112.022C131.456 114.54 131.429 117.219 132.559 119.5C133.514 121.428 135.195 122.879 136.776 124.343Z" fill="black"/>
<path d="M94.8414 258.545C98.2389 260.603 102.275 261.285 106.212 261.846C112.473 262.739 118.764 263.424 125.071 263.9C133.196 264.513 141.845 264.666 148.911 260.626C149.434 260.327 149.966 259.984 150.252 259.456C151.119 257.852 149.14 256.115 147.34 255.795C145.54 255.474 143.459 255.658 142.143 254.393C144.793 253.082 148.127 253.262 150.619 254.851C153.111 256.44 154.67 259.381 154.584 262.327C154.513 264.742 153.423 267.067 153.536 269.48C153.673 272.424 150.66 274.468 147.91 275.555C139.169 279.012 129.499 279.102 120.095 278.964C111.763 278.842 103.109 278.5 95.7053 274.692C93.8433 273.735 92.024 272.501 90.9945 270.683C90.0704 269.051 89.8769 267.122 89.7026 265.256C89.3521 261.504 89.1309 257.309 91.5574 254.418C93.871 251.661 97.823 251.035 101.421 250.776C103.158 250.651 103.769 248.354 103.452 246.648C103.134 244.942 102.378 243.124 103.124 241.556C104.612 238.426 109.782 239.965 112.439 237.731C113.321 236.989 114.739 238.309 114.396 239.407C114.054 240.505 112.758 241.018 111.604 241.04C110.45 241.061 109.301 240.745 108.152 240.85C107.002 240.955 105.762 241.686 105.665 242.832C116.259 247.067 128.222 247.823 139.269 244.958C137.368 242.639 134.322 241.299 131.321 241.461C131.37 240.724 132.198 240.307 132.928 240.172C136.235 239.563 139.64 241.868 140.906 244.971C142.173 248.074 141.579 251.702 140 254.66C138.564 254.214 138.678 252.192 138.91 250.712C139.141 249.232 138.53 247.095 137.054 247.379C126.963 249.327 116.359 248.57 106.649 245.211C105.908 244.955 105.437 245.993 105.347 246.769C105.009 249.671 104.836 253.051 106.989 255.034C108.046 256.008 109.484 256.441 110.88 256.792C118.468 258.7 126.448 259.045 134.173 257.798C135.254 257.623 136.632 257.55 137.16 258.506C131.307 261.149 124.562 260.547 118.169 259.893C115.148 259.584 112.066 259.259 109.295 258.019C106.593 256.81 104.307 254.78 101.545 253.716C98.7826 252.651 95.0817 252.928 93.5754 255.468C93.4093 255.748 93.2736 256.055 93.2502 256.379C93.1821 257.32 94.0323 258.055 94.8414 258.545ZM151.718 270.161C152.948 267.421 151.815 264.278 151.452 261.298C143.059 267.008 132.021 266.515 121.912 265.459C116.051 264.847 110.203 264.119 104.371 263.278C100.589 262.732 96.6164 262.054 93.6599 259.642C92.8663 258.995 91.9838 260.351 91.8524 261.365C91.4703 264.312 91.1383 267.518 92.6752 270.065C94.3605 272.858 97.782 274.02 100.958 274.8C114.937 278.233 129.732 278.321 143.751 275.053C146.904 274.318 150.396 273.106 151.718 270.161Z" fill="black"/>
<path d="M168.993 27.1037C170.645 26.745 172.336 27.3799 173.892 28.0401C203.663 40.6748 226.892 67.6651 234.878 98.9011C242.864 130.137 235.425 164.906 215.347 190.185C195.27 215.464 163.011 230.676 130.655 230.123C129.997 233.866 129.339 237.61 128.682 241.353C128.681 238.181 128.63 234.823 126.959 232.122C125.288 229.422 121.372 227.839 118.813 229.728C115.316 233.887 118.019 241.425 123.37 242.437C122.323 244.882 118.287 244.12 116.931 241.832C115.574 239.543 115.882 236.693 115.673 234.043C115.464 231.393 114.236 228.346 111.619 227.826C103.85 226.283 96.2303 223.997 88.8981 221.01C84.1529 219.076 78.6834 215.279 79.7955 210.294C80.6168 206.612 84.9909 204.64 88.745 205.135C92.4991 205.631 95.7376 207.911 98.8058 210.122C100.406 204.613 102.007 199.105 103.607 193.596C98.5698 193.829 97.1558 186.477 92.9114 183.765C73.4928 171.356 60.5477 149.423 59.1062 126.488C57.6648 103.553 67.7625 80.1827 85.4758 65.4586C103.189 50.7345 128.08 45.0204 150.477 50.5366C153.134 47.2806 158.102 46.153 161.913 47.9409C165.477 46.1297 165.295 41.1058 164.847 37.1459C164.399 33.1861 165.084 27.9524 168.993 27.1037V27.1037ZM200.21 147.085C208.941 124.233 204.836 96.9738 189.759 77.679C188.666 76.2812 187.432 74.8608 185.746 74.2993C181.935 73.0308 178.125 71.7624 174.315 70.4939C174.728 72.0944 173.443 73.7374 171.891 74.3226C170.339 74.9078 168.615 74.7094 166.969 74.5007C164.037 74.129 161.01 73.7189 158.478 72.2002C155.946 70.6815 154.027 67.7413 154.64 64.8613C155.13 62.5603 152.299 61.0858 150.024 60.4542C144.086 58.8054 138.147 57.1567 132.209 55.5079C130.915 55.1485 129.53 54.7308 128.703 53.6759C127.876 52.6209 128.039 50.7284 129.312 50.2994C119.36 50.5643 109.477 53.1104 100.644 57.6844C107.686 61.3198 114.861 65.0529 120.374 70.7326C124.698 75.1872 127.948 81.1583 127.424 87.3322C126.969 92.6816 123.694 97.5194 119.429 100.801C115.163 104.082 109.978 105.969 104.751 107.278C97.0385 109.209 87.6953 109.513 82.389 103.613C80.8453 101.897 78.0867 102.342 75.8494 102.928C72.0742 103.917 68.2991 104.905 64.5239 105.894C63.645 106.124 62.5809 106.571 62.551 107.476C62.4603 110.22 64.5019 112.887 67.1825 113.527C69.8631 114.166 72.896 112.709 74.063 110.222C74.7661 108.724 76.8853 108.49 78.438 109.076C79.9907 109.663 81.2756 110.813 82.8202 111.421C85.268 112.384 88.142 111.901 90.5096 113.046C94.4587 114.955 95.1315 120.313 94.3783 124.62C92.9802 132.616 88.429 140.021 81.9161 144.897C77.6423 148.097 78.3841 154.73 80.5349 159.605C82.6857 164.481 85.8841 169.383 85.1372 174.657C82.2044 168.548 79.7209 162.226 77.7132 155.757C76.6057 152.189 75.9719 147.557 79.0259 145.39C85.5149 140.785 90.3297 133.89 92.4059 126.228C93.6504 121.636 93.0316 115.364 88.4615 113.984C86.6901 113.449 84.7311 113.846 82.9718 113.273C81.4987 112.792 80.3184 111.681 78.9039 111.05C77.4894 110.419 75.4978 110.473 74.7513 111.826C72.2081 116.436 64.4022 116.625 61.6374 112.143C58.4269 134.977 67.1101 159.147 84.1357 174.768C101.161 190.39 126.058 197.029 148.642 191.971C171.226 186.913 190.873 170.298 199.547 148.921C197.136 147.851 195.771 145.198 195.419 142.593C195.067 139.989 195.537 137.354 195.797 134.739C196.322 129.479 195.993 124.136 194.827 118.979C194.513 117.593 193.899 115.978 192.501 115.691C188.306 114.828 184.326 112.95 180.998 110.264C178.471 108.224 176.349 104.18 178.808 102.058C179.954 101.07 178.328 99.4422 177.736 98.0523C176.485 95.1181 180.315 92.7082 183.376 91.7781C186.965 90.6875 190.554 89.5969 194.143 88.5063C194.53 88.3886 194.941 88.2699 195.334 88.3656C196.478 88.6437 196.398 90.4837 195.435 91.1594C194.473 91.8352 193.188 91.7257 192.011 91.6979C187.328 91.5871 182.625 93.294 179.112 96.3798C180.674 98.1012 181.077 100.775 180.089 102.877C178.9 105.408 180.588 108.479 182.921 110.03C185.254 111.581 188.101 112.11 190.72 113.112C193.338 114.114 195.978 115.894 196.612 118.616C197.896 124.13 198.176 129.875 197.433 135.488C196.872 139.723 196.346 145.228 200.21 147.085ZM106.147 211.88C104.68 210.261 105.042 207.695 105.957 205.714C106.871 203.733 108.253 201.919 108.64 199.774C109.027 197.628 107.859 194.951 105.677 194.784C104.079 200.03 102.481 205.276 100.883 210.522C130.092 220.349 164.083 214.632 188.433 195.796C212.783 176.96 226.758 145.572 224.429 114.951C222.099 84.3301 203.535 55.3976 176.614 40.4309C175.972 40.074 175.253 39.7128 174.534 39.8681C173.612 40.0677 173.087 41.0153 172.682 41.8648C171.331 44.6961 169.979 47.5273 168.628 50.3585C171.811 52.2203 173.512 56.2872 172.597 59.8495C190.815 71.3503 203.501 91.1641 206.286 112.468C209.072 133.771 201.904 156.16 187.251 171.925C172.599 187.69 150.739 196.531 129.2 195.404C124.152 195.14 118.715 194.444 114.365 197.008C109.336 199.974 107.529 206.224 106.147 211.88H106.147ZM174.917 30.5214C173.256 29.7836 171.449 29.0747 169.665 29.427C167.881 29.7794 166.296 31.6623 166.946 33.3543C198.221 46.0723 221.569 76.3755 225.812 109.757C230.054 143.139 215.024 178.281 187.917 198.361C160.81 218.441 122.695 222.665 91.8197 209.011C88.821 207.685 84.7269 206.445 82.7487 209.052C81.5308 210.657 81.9388 213.056 83.1668 214.653C84.3949 216.25 86.2558 217.22 88.0792 218.085C121.016 233.72 162.278 230.297 192.165 209.451C222.052 188.605 239.391 151.154 235.904 114.978C232.417 78.8026 208.24 45.3221 174.917 30.5214ZM63.8519 104.444C67.6951 103.399 71.5383 102.353 75.3816 101.308C78.0322 100.587 81.3147 100.035 83.1453 102.076C86.1015 105.372 90.6794 106.879 95.1157 106.963C99.552 107.047 103.909 105.857 108.129 104.491C113.881 102.63 120.008 100.004 122.762 94.6406C124.38 91.4882 126.041 88.1397 125.822 84.6059C125.619 81.3489 123.845 78.425 122.12 75.6506C120.67 73.3192 119.184 70.9445 117.066 69.1924C113.453 66.2028 108.349 65.3118 105.047 61.9839C103.139 60.0602 100.107 59.5913 97.459 60.1898C94.8111 60.7883 92.4705 62.3013 90.2856 63.907C77.7593 73.1125 68.3179 86.4115 63.7794 101.243C63.4546 102.305 63.1836 103.556 63.8519 104.444ZM172.941 69.8389C174.168 68.0825 176.937 68.6942 178.765 69.8188C180.592 70.9433 182.561 72.4657 184.642 71.9344C173.277 60.453 158.053 52.8287 142.023 50.5903C137.873 50.0108 133.115 49.9744 130.132 52.9058C137.596 55.1359 145.061 57.366 152.526 59.596C153.508 59.8894 154.544 60.217 155.217 60.9877C156.399 62.3428 155.977 64.402 156.305 66.1672C156.779 68.7117 158.925 70.6922 161.323 71.6871C163.721 72.6821 166.37 72.8592 168.963 73.0239C169.864 73.0812 170.868 73.1057 171.549 72.5145C172.316 71.8484 172.36 70.6708 172.941 69.8389ZM170.674 58.5698C171.372 57.0505 170.743 55.1855 169.585 53.9773C168.427 52.7691 166.837 52.0814 165.281 51.4595C162.551 50.3692 159.719 49.3742 156.779 49.2955C156.042 49.2758 155.231 49.3434 154.702 49.8551C154.173 50.3668 154.222 51.4548 154.928 51.6674C160.43 53.3251 165.73 55.6484 170.674 58.5698ZM117.037 193.662C111.686 192.668 106.478 190.915 101.618 188.473C101.216 188.271 100.789 188.059 100.34 188.101C99.8922 188.143 99.4498 188.561 99.5632 188.995C99.64 189.289 99.9259 189.472 100.189 189.626C102.983 191.262 105.8 192.908 108.865 193.956C111.93 195.004 115.299 195.424 118.42 194.558C118.315 193.982 117.614 193.769 117.037 193.662ZM171.065 37.3882C170.645 36.7753 169.66 36.8197 169.078 37.2825C168.496 37.7453 168.215 38.4789 167.961 39.1762C166.896 42.0916 165.83 45.007 164.765 47.9225C164.667 48.1903 164.568 48.47 164.6 48.7532C164.692 49.576 165.864 49.8742 166.575 49.4456C167.286 49.0171 167.624 48.1849 167.916 47.4097C168.939 44.6907 169.963 41.9716 170.986 39.2525C171.215 38.6457 171.432 37.9233 171.065 37.3882V37.3882Z" fill="black"/>
</svg>
