<svg width="600" height="440" viewBox="0 0 600 440" fill="none" xmlns="http://www.w3.org/2000/svg">
<path fill-rule="evenodd" clip-rule="evenodd" d="M65.2619 391.938C110.532 441.215 285.593 412.909 400.863 412.909C450.591 412.909 617.471 437.832 548.559 266.668C322.609 -294.553 -78.1766 235.8 65.2619 391.938Z" fill="#E4F6FF"/>
<path fill-rule="evenodd" clip-rule="evenodd" d="M265.561 395.902C265.781 395.733 266.012 395.55 266.108 395.289C266.415 394.455 265.21 393.9 264.321 393.92C263.03 393.949 261.376 394.818 261.77 396.047C261.999 396.758 262.875 397.088 263.61 396.957C264.345 396.826 264.969 396.357 265.561 395.902H265.561ZM269.397 381.269C270.372 381.574 271.334 381.952 272.183 382.52C273.776 383.587 274.86 385.244 275.9 386.854C276.646 388.009 277.403 389.186 277.775 390.51C278.178 391.943 278.106 393.473 277.836 394.937C276.995 399.499 274.18 403.661 270.26 406.139C266.34 408.618 261.373 409.376 256.891 408.181C256.019 407.948 255.141 407.631 254.47 407.027C253.906 406.519 253.526 405.843 253.178 405.169C251.353 401.63 250.122 397.698 250.263 393.719C250.403 389.739 252.039 385.712 255.138 383.211C259.026 380.072 264.629 379.772 269.397 381.269" fill="white"/>
<path fill-rule="evenodd" clip-rule="evenodd" d="M475.197 164.779C473.06 164.752 471.056 166.544 470.845 168.67C470.758 169.539 471.127 170.619 471.992 170.739C472.64 170.829 473.209 170.328 473.645 169.84C474.566 168.807 475.358 167.658 475.995 166.429C476.208 166.017 476.397 165.488 476.116 165.118C475.911 164.848 475.535 164.783 475.197 164.779ZM474.272 155.245C477.306 156.303 480.056 158.165 482.165 160.589C483.978 162.673 485.359 165.377 484.978 168.113C484.838 169.117 484.468 170.074 484.045 170.996C482.445 174.487 479.693 177.832 475.913 178.508C473.93 178.862 471.885 178.437 469.978 177.789C467.773 177.038 465.67 175.986 463.748 174.67C462.728 173.972 461.715 173.144 461.268 171.991C460.96 171.198 460.95 170.323 460.962 169.471C460.99 167.365 461.13 165.223 461.864 163.249C462.794 160.751 464.611 158.689 466.539 156.849C467.314 156.109 468.137 155.38 469.132 154.983C470.761 154.334 472.616 154.667 474.272 155.245" fill="white"/>
<path fill-rule="evenodd" clip-rule="evenodd" d="M475.2 3.28755C487.754 16.2341 497.662 31.7152 504.149 48.5159C504.594 49.6698 505.026 50.9516 504.601 52.1132C501.329 61.0567 495.014 68.5128 488.822 75.7628C484.865 80.3954 480.909 85.0281 476.952 89.6608C473.175 94.0833 469.397 98.5066 465.492 102.818C445.611 124.769 422.119 143.964 394.911 155.774C393.884 156.22 392.783 156.664 391.677 156.486C390.571 156.308 389.535 155.239 389.825 154.161C393.188 141.634 396.574 128.538 393.875 115.852C393.223 112.792 392.498 108.94 395.036 107.099C415.584 92.1921 430.379 70.8848 444.557 49.867C448.123 44.5822 451.678 39.2827 454.833 33.745C460.435 23.9129 464.748 13.3539 467.631 2.41959C468.027 0.919115 469.928 0.243454 471.435 0.636673C472.941 1.02989 474.118 2.17176 475.2 3.28755" fill="white"/>
<path fill-rule="evenodd" clip-rule="evenodd" d="M83.694 53.5833C85.735 72.0349 91.4157 90.0768 100.314 106.369C105.824 116.457 112.525 125.837 119.209 135.188C123.86 141.695 128.833 148.476 136.09 151.839C138.02 152.733 137.751 155.515 137.233 157.578C134.994 166.493 133.95 175.708 134.136 184.898C134.154 185.767 134.177 186.667 133.835 187.465C132.677 190.177 128.71 189.725 125.978 188.616C109.077 181.755 96.1005 167.957 83.9789 154.327C68.2408 136.629 52.7369 118.155 43.4397 96.3727C42.8077 94.8919 42.1943 93.3335 42.3 91.7269C42.4078 90.09 43.2488 88.602 44.102 87.2008C52.5301 73.3577 64.2553 61.5371 78.0295 52.997C78.9997 52.3955 80.0356 51.7927 81.1765 51.7532C82.3173 51.7138 83.5685 52.4487 83.694 53.5833" fill="white"/>
<path fill-rule="evenodd" clip-rule="evenodd" d="M472.736 377.275C474.193 374.807 475.998 372.089 478.825 371.621C479.94 371.436 480.528 370.225 480.907 369.161C485.581 356.051 486.031 341.473 482.176 328.1C481.075 324.283 482.43 320.236 483.771 316.497C487.23 306.846 490.69 297.196 494.149 287.545C492.167 284.116 486.941 284.218 484.264 281.3C480.818 277.545 483.417 271.575 486.116 267.253C501.885 242 517.653 216.747 533.422 191.494C535.353 188.4 539.593 187.431 543.146 188.255C546.699 189.079 549.733 191.316 552.656 193.498C564.156 202.088 575.656 210.678 587.157 219.268C593.329 223.878 600.143 229.767 599.787 237.463C599.591 241.721 597.154 245.506 594.797 249.059C585.682 262.792 576.568 276.526 567.454 290.26C562.319 297.998 563.737 308.159 562.185 317.315C559.733 331.781 549.813 343.662 540.627 355.103C531.442 366.544 522.25 379.319 521.734 393.983C521.118 411.459 512.816 428.528 499.446 439.801C503.324 430.394 478.825 434.146 450.801 422.996C455.412 406.682 464.119 391.875 472.736 377.275Z" fill="white"/>
<path fill-rule="evenodd" clip-rule="evenodd" d="M165.01 418.189C163.263 416.76 162.706 414.347 162.397 412.104C158.828 386.155 174.156 360.542 171.425 334.49C170.018 321.064 163.85 308.537 156.087 297.519C150.726 289.911 150.426 279.718 152.426 270.615C154.426 261.512 158.46 253 161.181 244.087C173.282 204.453 158.558 162.113 144 123.322C173.008 109.295 206.859 112.012 238.995 113.912C271.131 115.813 305.693 115.947 332.478 98C336.149 136.825 328.054 175.693 320.005 213.845C360.846 209.866 401.688 205.887 442.529 201.908C443.7 201.794 444.981 201.706 445.954 202.371C447.252 203.258 447.452 205.067 447.526 206.643C449.435 247.02 450.593 287.432 450.998 327.853C451.008 328.866 450.973 329.997 450.262 330.716C449.653 331.331 448.724 331.46 447.865 331.556C390.645 337.932 333.425 344.309 276.205 350.685C271.257 351.237 264.209 349.948 264.498 344.953C265.79 322.682 265.036 300.291 262.248 278.158C247.042 277.583 231.732 279.902 217.369 284.956C214.111 286.102 210.193 289.185 211.95 292.171C223.577 311.929 209.146 341.627 224.937 358.212C230.366 363.915 229.991 372.886 228.915 380.704C226.609 397.462 222.69 413.996 217.232 430C219.871 411.579 166.623 428.068 165.01 418.189Z" fill="white"/>
<path fill-rule="evenodd" clip-rule="evenodd" d="M1.34573 0.0267332C1.39461 0.420072 1.18178 0.833096 0.83309 1.02156C0.555393 0.743733 0.277697 0.465903 0 0.188073C0.416302 0.00599201 0.888435 -0.0459425 1.33436 0.0412939L1.34573 0.0267332Z" fill="#00160A"/>
<path fill-rule="evenodd" clip-rule="evenodd" d="M268.397 381.269C269.372 381.574 270.334 381.952 271.183 382.52C272.776 383.587 273.86 385.244 274.9 386.854C275.646 388.009 276.403 389.186 276.775 390.51C277.178 391.943 277.106 393.473 276.836 394.937C275.995 399.499 273.18 403.661 269.26 406.139C265.34 408.618 260.373 409.376 255.891 408.181C255.019 407.948 254.141 407.631 253.47 407.027C252.906 406.519 252.526 405.843 252.178 405.169C250.353 401.63 249.122 397.698 249.263 393.719C249.403 389.739 251.039 385.712 254.138 383.211C258.026 380.072 263.629 379.772 268.397 381.269M262.933 404.962C265.371 404.592 267.516 403 268.917 400.971C270.318 398.942 271.036 396.509 271.381 394.068C271.579 392.674 271.597 391.077 270.612 390.07C270.023 389.467 269.182 389.198 268.375 388.957C265.344 388.05 261.885 387.279 259.17 388.903C257.194 390.086 256.091 392.278 255.092 394.353C253.923 396.784 254.212 399.852 255.815 402.021C257.418 404.19 260.266 405.367 262.933 404.962V404.962Z" fill="#00160A"/>
<path fill-rule="evenodd" clip-rule="evenodd" d="M379.739 271.788C379.782 271.271 379.844 270.716 380.186 270.326C380.521 269.945 381.047 269.808 381.541 269.693C394.275 266.728 407.428 265.568 420.484 266.258C422.147 266.346 424.286 266.909 424.396 268.57C425.026 278.096 425.657 287.622 426.288 297.148C426.32 297.63 426.336 298.164 426.027 298.536C425.776 298.839 425.37 298.956 424.99 299.056C411.41 302.596 397.096 303.294 383.236 301.091C382.879 301.035 382.504 300.968 382.227 300.736C381.892 300.455 381.774 299.999 381.679 299.573C379.635 290.48 378.979 281.076 379.739 271.788ZM382.742 287.59C382.992 291.187 383.746 294.749 384.976 298.139C386.203 298.315 387.417 298.57 388.639 298.777C399.172 300.56 409.944 298.766 420.475 296.974C421.223 296.847 422.042 296.678 422.503 296.077C422.974 295.462 422.912 294.606 422.827 293.837C422.464 290.554 422.101 287.272 421.738 283.99C421.709 283.725 421.672 283.441 421.493 283.244C421.275 283.005 420.919 282.966 420.597 282.945C413.113 282.452 405.605 283.011 398.126 283.569C393.992 283.877 389.858 284.186 385.724 284.494C384.752 284.567 383.649 284.711 383.09 285.509C382.678 286.097 382.692 286.874 382.742 287.59ZM382.858 273.861C382.204 275.959 382.087 278.222 382.52 280.376C382.598 280.763 382.708 281.172 383.001 281.435C383.437 281.826 384.101 281.762 384.68 281.677C391.723 280.645 398.843 280.133 405.961 280.145C406.965 280.146 407.273 278.795 407.262 277.79C407.246 276.319 407.23 274.848 407.214 273.377C407.205 272.525 407.162 271.587 406.579 270.967C405.879 270.221 404.709 270.244 403.688 270.322C401.33 270.502 398.972 270.682 396.614 270.863C395.486 270.949 392.493 271.715 391.118 271.806C388.724 272.188 386.33 272.57 383.936 272.952C383.681 272.992 383.411 273.039 383.215 273.207C383.023 273.37 382.933 273.621 382.858 273.861ZM414.435 280.261C416.306 280.285 418.18 280.098 420.01 279.704C420.446 279.611 420.904 279.491 421.214 279.172C421.67 278.703 421.666 277.968 421.633 277.315C421.536 275.418 421.439 273.521 421.342 271.624C421.308 270.947 421.232 270.185 420.703 269.761C420.238 269.389 419.581 269.411 418.986 269.452C416.905 269.593 414.824 269.735 412.743 269.876C412.414 269.899 412.067 269.927 411.792 270.109C411.288 270.442 411.212 271.14 411.198 271.744C411.152 273.754 411.234 275.768 411.444 277.768C411.505 278.347 411.589 278.957 411.947 279.416C412.506 280.131 413.528 280.25 414.435 280.261Z" fill="#56BBED"/>
<path fill-rule="evenodd" clip-rule="evenodd" d="M412.329 230.159C415.111 228.956 418.524 229.359 420.949 231.178C423.373 232.997 424.715 236.161 424.338 239.169C426.042 238.247 428.204 237.34 429.795 238.446C431.591 239.696 431.181 242.387 430.911 244.558C430.439 248.352 431.051 252.274 432.654 255.744C433.317 257.177 433.886 259.352 432.416 259.931C432.168 260.028 431.898 260.051 431.632 260.072C414.402 261.461 397.173 262.849 379.943 264.238C379.47 264.276 378.941 264.296 378.584 263.985C378.219 263.667 378.173 263.127 378.154 262.643C377.988 258.591 377.823 254.538 377.658 250.485C377.614 249.398 377.593 248.226 378.207 247.328C379.223 245.841 381.351 245.846 383.129 245.561C384.907 245.276 386.976 243.776 386.291 242.111C385.528 240.254 388.128 238.897 390.113 238.595C392.098 238.293 394.73 237.11 394.129 235.195C393.472 233.103 396.351 231.804 398.525 231.516C400.059 231.312 401.663 231.115 403.118 231.641C404.572 232.167 405.802 233.665 405.475 235.177C405.099 236.909 407.208 238.522 408.871 237.91C410.533 237.299 411.207 235.026 410.365 233.468C409.678 232.195 411.001 230.734 412.329 230.159ZM421.226 256.866C420.582 255.671 420.577 254.249 420.571 252.891C420.544 246.517 420.152 240.144 419.399 233.815C419.361 233.495 419.301 233.138 419.039 232.951C418.813 232.79 418.51 232.809 418.234 232.835C416.888 232.96 415.293 233.258 414.761 234.501C414.534 235.031 414.561 235.63 414.592 236.206C414.933 242.595 415.274 248.983 415.616 255.372C415.648 255.967 415.727 256.65 416.221 256.983C416.491 257.164 416.83 257.198 417.154 257.215C418.519 257.29 419.894 257.172 421.226 256.866ZM398.052 247.043C397.885 248.108 397.65 249.164 397.588 250.24C397.483 252.037 397.862 253.824 398.238 255.585C398.48 256.714 399.939 257.269 401.008 256.834C402.078 256.399 402.724 255.258 402.901 254.117C403.079 252.976 402.871 251.816 402.689 250.676C401.975 246.197 401.666 241.654 401.766 237.119C401.792 235.972 400.673 234.936 399.531 235.049C398.389 235.162 397.495 236.398 397.745 237.518C398.443 240.637 398.547 243.886 398.052 247.043ZM409.384 240.925C408.712 240.045 407.172 240.514 406.648 241.489C406.124 242.464 406.284 243.646 406.414 244.746C406.754 247.616 406.786 250.523 406.511 253.401C406.429 254.249 406.339 255.176 406.808 255.888C407.528 256.983 409.109 256.973 410.413 256.841C410.822 256.799 411.292 256.72 411.498 256.364C411.641 256.116 411.607 255.809 411.569 255.525C410.968 251.06 410.366 246.596 409.765 242.131C409.708 241.708 409.642 241.264 409.384 240.925ZM424.308 242.844C423.802 243.534 423.695 244.432 423.651 245.287C423.501 248.218 423.889 251.146 424.276 254.055C424.429 255.201 424.953 256.674 426.107 256.596C427.276 256.517 427.581 254.953 427.554 253.781C427.482 250.679 427.41 247.576 427.338 244.473C427.319 243.658 427.233 242.713 426.556 242.257C425.846 241.78 424.814 242.154 424.308 242.844ZM388.991 242.111C388.991 242.111 389.505 246.16 389.684 248.223C389.909 250.813 390.195 253.398 390.543 255.974C390.593 256.349 390.661 256.754 390.937 257.011C391.415 257.458 393.261 257.161 393.602 256.602C393.942 256.043 393.923 255.345 393.893 254.691C393.799 252.623 393.706 250.554 393.612 248.486C393.511 246.269 392.984 241.489 392.984 241.489M382.295 256.773C382.443 257.236 382.617 257.722 382.992 258.032C383.724 258.638 384.911 258.263 385.488 257.508C386.065 256.754 386.195 255.76 386.305 254.816C386.44 253.658 386.571 252.455 386.196 251.351C385.821 250.248 384.784 249.276 383.622 249.379C382.555 249.473 381.727 250.449 381.478 251.492C381.229 252.535 381.439 253.628 381.698 254.668C381.875 255.376 382.074 256.078 382.295 256.773Z" fill="#E7EAEE"/>
<path fill-rule="evenodd" clip-rule="evenodd" d="M452.14 90.9614C450.749 93.0495 449.241 95.1647 447.089 96.454C444.936 97.7432 441.964 97.9944 440.03 96.3961C437.896 94.6326 437.765 91.4537 437.933 88.6907C437.998 87.6269 438.084 86.5547 438.389 85.5334C438.917 83.7622 440.072 82.2507 441.277 80.8491C442.739 79.1487 444.358 77.5085 446.386 76.5516C448.414 75.5947 450.934 75.4267 452.834 76.6173C455.109 78.0423 455.95 81.0737 455.52 83.723C455.089 86.3723 453.628 88.7276 452.14 90.9614M447.723 93.1706C449.477 91.3023 450.981 89.1998 452.183 86.9366C452.975 85.4472 453.648 83.8284 453.616 82.1422C453.585 80.4561 452.695 78.6936 451.129 78.0679C449.09 77.2529 446.85 78.5566 445.146 79.9418C443.932 80.9279 442.757 82.0097 441.978 83.3659C441.486 84.2234 441.166 85.167 440.849 86.1037C440.25 87.8757 439.642 89.722 439.87 91.5787C440.098 93.4353 441.427 95.2992 443.288 95.4916C445.01 95.6696 446.537 94.4328 447.723 93.1706Z" fill="#56BBED"/>
<path fill-rule="evenodd" clip-rule="evenodd" d="M93.799 114.562C95.9782 116.77 97.7771 119.352 99.093 122.16C100.416 124.983 99.0822 128.612 96.4868 130.339C93.8914 132.066 90.3823 132.043 87.5365 130.77C84.6907 129.497 82.4543 127.122 80.8073 124.475C79.5655 122.48 78.6027 120.243 78.4995 117.895C78.3963 115.547 79.2607 113.076 81.1182 111.636C82.9969 110.18 85.6386 109.972 87.9106 110.671C90.1826 111.37 92.129 112.871 93.799 114.562M85.2962 113.22C83.4106 113.026 81.7356 114.756 81.4121 116.624C81.0887 118.492 81.8007 120.387 82.722 122.044C84.7199 125.636 88.2845 128.827 92.3902 128.628C94.5007 128.526 96.814 127.064 96.7765 124.951C96.7603 124.038 96.3097 123.195 95.8595 122.4C94.6637 120.287 93.3721 118.197 91.6472 116.489C89.9222 114.781 87.7109 113.469 85.2962 113.22Z" fill="#56BBED"/>
</svg>
