<?xml version="1.0" encoding="utf-8"?>
<!-- Generator: Adobe Illustrator 27.3.1, SVG Export Plug-In . SVG Version: 6.00 Build 0)  -->
<svg version="1.1" id="Шар_1" xmlns="http://www.w3.org/2000/svg" xmlns:xlink="http://www.w3.org/1999/xlink" x="0px" y="0px"
	 viewBox="0 0 600 440" style="enable-background:new 0 0 600 440;" xml:space="preserve">
<style type="text/css">
	.st0{fill-rule:evenodd;clip-rule:evenodd;fill:#E4F6FF;}
	.st1{fill-rule:evenodd;clip-rule:evenodd;fill:#FFFFFF;}
	.st2{fill-rule:evenodd;clip-rule:evenodd;fill:#00160A;}
	.st3{fill-rule:evenodd;clip-rule:evenodd;fill:#56BBED;}
	.st4{fill-rule:evenodd;clip-rule:evenodd;fill:#E7EAEE;}
</style>
<path class="st0" d="M65.3,391.9c45.3,49.3,220.3,21,335.6,21c49.7,0,216.6,24.9,147.7-146.2C322.6-294.6-78.2,235.8,65.3,391.9z"/>
<path class="st1" d="M265.6,395.9c0.2-0.2,0.5-0.4,0.5-0.6c0.3-0.8-0.9-1.4-1.8-1.4c-1.3,0-2.9,0.9-2.6,2.1c0.2,0.7,1.1,1,1.8,0.9
	C264.3,396.8,265,396.4,265.6,395.9L265.6,395.9z M269.4,381.3c1,0.3,1.9,0.7,2.8,1.3c1.6,1.1,2.7,2.7,3.7,4.3
	c0.7,1.2,1.5,2.3,1.9,3.7c0.4,1.4,0.3,3,0.1,4.4c-0.8,4.6-3.7,8.7-7.6,11.2c-3.9,2.5-8.9,3.2-13.4,2c-0.9-0.2-1.7-0.5-2.4-1.2
	c-0.6-0.5-0.9-1.2-1.3-1.9c-1.8-3.5-3.1-7.5-2.9-11.5c0.1-4,1.8-8,4.9-10.5C259,380.1,264.6,379.8,269.4,381.3"/>
<path class="st1" d="M475.2,164.8c-2.1,0-4.1,1.8-4.4,3.9c-0.1,0.9,0.3,1.9,1.1,2.1c0.6,0.1,1.2-0.4,1.7-0.9c0.9-1,1.7-2.2,2.4-3.4
	c0.2-0.4,0.4-0.9,0.1-1.3C475.9,164.8,475.5,164.8,475.2,164.8z M474.3,155.2c3,1.1,5.8,2.9,7.9,5.3c1.8,2.1,3.2,4.8,2.8,7.5
	c-0.1,1-0.5,2-0.9,2.9c-1.6,3.5-4.4,6.8-8.1,7.5c-2,0.4-4-0.1-5.9-0.7c-2.2-0.8-4.3-1.8-6.2-3.1c-1-0.7-2-1.5-2.5-2.7
	c-0.3-0.8-0.3-1.7-0.3-2.5c0-2.1,0.2-4.2,0.9-6.2c0.9-2.5,2.7-4.6,4.7-6.4c0.8-0.7,1.6-1.5,2.6-1.9
	C470.8,154.3,472.6,154.7,474.3,155.2"/>
<path class="st1" d="M475.2,3.3c12.6,12.9,22.5,28.4,28.9,45.2c0.4,1.2,0.9,2.4,0.5,3.6c-3.3,8.9-9.6,16.4-15.8,23.6
	c-4,4.6-7.9,9.3-11.9,13.9c-3.8,4.4-7.6,8.8-11.5,13.2c-19.9,22-43.4,41.1-70.6,53c-1,0.4-2.1,0.9-3.2,0.7c-1.1-0.2-2.1-1.2-1.9-2.3
	c3.4-12.5,6.7-25.6,4-38.3c-0.7-3.1-1.4-6.9,1.2-8.8c20.5-14.9,35.3-36.2,49.5-57.2c3.6-5.3,7.1-10.6,10.3-16.1
	c5.6-9.8,9.9-20.4,12.8-31.3c0.4-1.5,2.3-2.2,3.8-1.8C472.9,1,474.1,2.2,475.2,3.3"/>
<path class="st1" d="M83.7,53.6c2,18.5,7.7,36.5,16.6,52.8c5.5,10.1,12.2,19.5,18.9,28.8c4.7,6.5,9.6,13.3,16.9,16.7
	c1.9,0.9,1.7,3.7,1.1,5.7c-2.2,8.9-3.3,18.1-3.1,27.3c0,0.9,0,1.8-0.3,2.6c-1.2,2.7-5.1,2.3-7.9,1.2c-16.9-6.9-29.9-20.7-42-34.3
	c-15.7-17.7-31.2-36.2-40.5-58c-0.6-1.5-1.2-3-1.1-4.6c0.1-1.6,0.9-3.1,1.8-4.5C52.5,73.4,64.3,61.5,78,53c1-0.6,2-1.2,3.1-1.2
	C82.3,51.7,83.6,52.4,83.7,53.6"/>
<path class="st1" d="M472.7,377.3c1.5-2.5,3.3-5.2,6.1-5.7c1.1-0.2,1.7-1.4,2.1-2.5c4.7-13.1,5.1-27.7,1.3-41.1
	c-1.1-3.8,0.3-7.9,1.6-11.6c3.5-9.7,6.9-19.3,10.4-29c-2-3.4-7.2-3.3-9.9-6.2c-3.4-3.8-0.8-9.7,1.9-14
	c15.8-25.3,31.5-50.5,47.3-75.8c1.9-3.1,6.2-4.1,9.7-3.2c3.6,0.8,6.6,3.1,9.5,5.2c11.5,8.6,23,17.2,34.5,25.8
	c6.2,4.6,13,10.5,12.6,18.2c-0.2,4.3-2.6,8-5,11.6c-9.1,13.7-18.2,27.5-27.3,41.2c-5.1,7.7-3.7,17.9-5.3,27.1
	c-2.5,14.5-12.4,26.3-21.6,37.8c-9.2,11.4-18.4,24.2-18.9,38.9c-0.6,17.5-8.9,34.5-22.3,45.8c3.9-9.4-20.6-5.7-48.6-16.8
	C455.4,406.7,464.1,391.9,472.7,377.3z"/>
<path class="st1" d="M165,418.2c-1.7-1.4-2.3-3.8-2.6-6.1c-3.6-25.9,11.8-51.6,9-77.6c-1.4-13.4-7.6-26-15.3-37
	c-5.4-7.6-5.7-17.8-3.7-26.9s6-17.6,8.8-26.5c12.1-39.6-2.6-82-17.2-120.8c29-14,62.9-11.3,95-9.4c32.1,1.9,66.7,2,93.5-15.9
	c3.7,38.8-4.4,77.7-12.5,115.8c40.8-4,81.7-8,122.5-11.9c1.2-0.1,2.5-0.2,3.4,0.5c1.3,0.9,1.5,2.7,1.6,4.3
	c1.9,40.4,3.1,80.8,3.5,121.2c0,1,0,2.1-0.7,2.9c-0.6,0.6-1.5,0.7-2.4,0.8c-57.2,6.4-114.4,12.8-171.7,19.1
	c-4.9,0.6-12-0.7-11.7-5.7c1.3-22.3,0.5-44.7-2.2-66.8c-15.2-0.6-30.5,1.7-44.9,6.8c-3.3,1.1-7.2,4.2-5.4,7.2
	c11.6,19.8-2.8,49.5,13,66c5.4,5.7,5.1,14.7,4,22.5c-2.3,16.8-6.2,33.3-11.7,49.3C219.9,411.6,166.6,428.1,165,418.2z"/>
<path class="st2" d="M1.3,0c0,0.4-0.2,0.8-0.5,1C0.6,0.7,0.3,0.5,0,0.2C0.4,0,0.9,0,1.3,0L1.3,0z"/>
<path class="st2" d="M268.4,381.3c1,0.3,1.9,0.7,2.8,1.3c1.6,1.1,2.7,2.7,3.7,4.3c0.7,1.2,1.5,2.3,1.9,3.7c0.4,1.4,0.3,3,0.1,4.4
	c-0.8,4.6-3.7,8.7-7.6,11.2c-3.9,2.5-8.9,3.2-13.4,2c-0.9-0.2-1.8-0.5-2.4-1.2c-0.6-0.5-0.9-1.2-1.3-1.9c-1.8-3.5-3.1-7.5-2.9-11.5
	c0.1-4,1.8-8,4.9-10.5C258,380.1,263.6,379.8,268.4,381.3 M262.9,405c2.4-0.4,4.6-2,6-4c1.4-2,2.1-4.5,2.5-6.9c0.2-1.4,0.2-3-0.8-4
	c-0.6-0.6-1.4-0.9-2.2-1.1c-3-0.9-6.5-1.7-9.2-0.1c-2,1.2-3.1,3.4-4.1,5.4c-1.2,2.4-0.9,5.5,0.7,7.7S260.3,405.4,262.9,405
	L262.9,405z"/>
<path class="st3" d="M379.7,271.8c0-0.5,0.1-1.1,0.4-1.5c0.3-0.4,0.9-0.5,1.4-0.6c12.7-3,25.9-4.1,38.9-3.4c1.7,0.1,3.8,0.7,3.9,2.3
	c0.6,9.5,1.3,19.1,1.9,28.6c0,0.5,0,1-0.3,1.4c-0.3,0.3-0.7,0.4-1,0.5c-13.6,3.5-27.9,4.2-41.8,2c-0.4-0.1-0.7-0.1-1-0.4
	c-0.3-0.3-0.5-0.7-0.5-1.2C379.6,290.5,379,281.1,379.7,271.8z M382.7,287.6c0.2,3.6,1,7.2,2.2,10.5c1.2,0.2,2.4,0.4,3.7,0.6
	c10.5,1.8,21.3,0,31.8-1.8c0.7-0.1,1.6-0.3,2-0.9c0.5-0.6,0.4-1.5,0.3-2.2c-0.4-3.3-0.7-6.6-1.1-9.8c0-0.3-0.1-0.5-0.2-0.7
	c-0.2-0.2-0.6-0.3-0.9-0.3c-7.5-0.5-15,0.1-22.5,0.6c-4.1,0.3-8.3,0.6-12.4,0.9c-1,0.1-2.1,0.2-2.6,1
	C382.7,286.1,382.7,286.9,382.7,287.6z M382.9,273.9c-0.7,2.1-0.8,4.4-0.3,6.5c0.1,0.4,0.2,0.8,0.5,1.1c0.4,0.4,1.1,0.3,1.7,0.2
	c7-1,14.2-1.5,21.3-1.5c1,0,1.3-1.3,1.3-2.4c0-1.5,0-2.9,0-4.4c0-0.9-0.1-1.8-0.6-2.4c-0.7-0.7-1.9-0.7-2.9-0.6
	c-2.4,0.2-4.7,0.4-7.1,0.5c-1.1,0.1-4.1,0.9-5.5,0.9c-2.4,0.4-4.8,0.8-7.2,1.1c-0.3,0-0.5,0.1-0.7,0.3
	C383,273.4,382.9,273.6,382.9,273.9z M414.4,280.3c1.9,0,3.7-0.2,5.6-0.6c0.4-0.1,0.9-0.2,1.2-0.5c0.5-0.5,0.5-1.2,0.4-1.9
	c-0.1-1.9-0.2-3.8-0.3-5.7c0-0.7-0.1-1.4-0.6-1.9c-0.5-0.4-1.1-0.3-1.7-0.3c-2.1,0.1-4.2,0.3-6.2,0.4c-0.3,0-0.7,0.1-1,0.2
	c-0.5,0.3-0.6,1-0.6,1.6c0,2,0,4,0.2,6c0.1,0.6,0.1,1.2,0.5,1.6C412.5,280.1,413.5,280.2,414.4,280.3z"/>
<path class="st4" d="M412.3,230.2c2.8-1.2,6.2-0.8,8.6,1c2.4,1.8,3.8,5,3.4,8c1.7-0.9,3.9-1.8,5.5-0.7c1.8,1.2,1.4,3.9,1.1,6.1
	c-0.5,3.8,0.1,7.7,1.7,11.2c0.7,1.4,1.2,3.6-0.2,4.2c-0.2,0.1-0.5,0.1-0.8,0.1c-17.2,1.4-34.5,2.8-51.7,4.2c-0.5,0-1,0.1-1.4-0.3
	c-0.4-0.3-0.4-0.9-0.4-1.3c-0.2-4.1-0.3-8.1-0.5-12.2c0-1.1-0.1-2.3,0.5-3.2c1-1.5,3.1-1.5,4.9-1.8c1.8-0.3,3.8-1.8,3.2-3.5
	c-0.8-1.9,1.8-3.2,3.8-3.5c2-0.3,4.6-1.5,4-3.4c-0.7-2.1,2.2-3.4,4.4-3.7c1.5-0.2,3.1-0.4,4.6,0.1c1.5,0.5,2.7,2,2.4,3.5
	c-0.4,1.7,1.7,3.3,3.4,2.7c1.7-0.6,2.3-2.9,1.5-4.4C409.7,232.2,411,230.7,412.3,230.2z M421.2,256.9c-0.6-1.2-0.6-2.6-0.7-4
	c0-6.4-0.4-12.7-1.2-19.1c0-0.3-0.1-0.7-0.4-0.9c-0.2-0.2-0.5-0.1-0.8-0.1c-1.3,0.1-2.9,0.4-3.5,1.7c-0.2,0.5-0.2,1.1-0.2,1.7
	c0.3,6.4,0.7,12.8,1,19.2c0,0.6,0.1,1.3,0.6,1.6c0.3,0.2,0.6,0.2,0.9,0.2C418.5,257.3,419.9,257.2,421.2,256.9z M398.1,247
	c-0.2,1.1-0.4,2.1-0.5,3.2c-0.1,1.8,0.3,3.6,0.6,5.3c0.2,1.1,1.7,1.7,2.8,1.2c1.1-0.4,1.7-1.6,1.9-2.7c0.2-1.1,0-2.3-0.2-3.4
	c-0.7-4.5-1-9-0.9-13.6c0-1.1-1.1-2.2-2.2-2.1c-1.1,0.1-2,1.3-1.8,2.5C398.4,240.6,398.5,243.9,398.1,247z M409.4,240.9
	c-0.7-0.9-2.2-0.4-2.7,0.6c-0.5,1-0.4,2.2-0.2,3.3c0.3,2.9,0.4,5.8,0.1,8.7c-0.1,0.8-0.2,1.8,0.3,2.5c0.7,1.1,2.3,1.1,3.6,1
	c0.4,0,0.9-0.1,1.1-0.5c0.1-0.2,0.1-0.6,0.1-0.8c-0.6-4.5-1.2-8.9-1.8-13.4C409.7,241.7,409.6,241.3,409.4,240.9z M424.3,242.8
	c-0.5,0.7-0.6,1.6-0.7,2.4c-0.1,2.9,0.2,5.9,0.6,8.8c0.2,1.1,0.7,2.6,1.8,2.5c1.2-0.1,1.5-1.6,1.4-2.8c-0.1-3.1-0.1-6.2-0.2-9.3
	c0-0.8-0.1-1.8-0.8-2.2C425.8,241.8,424.8,242.2,424.3,242.8z M389,242.1c0,0,0.5,4,0.7,6.1c0.2,2.6,0.5,5.2,0.9,7.8
	c0,0.4,0.1,0.8,0.4,1c0.5,0.4,2.3,0.2,2.7-0.4c0.3-0.6,0.3-1.3,0.3-1.9c-0.1-2.1-0.2-4.1-0.3-6.2c-0.1-2.2-0.6-7-0.6-7 M382.3,256.8
	c0.1,0.5,0.3,0.9,0.7,1.3c0.7,0.6,1.9,0.2,2.5-0.5c0.6-0.8,0.7-1.7,0.8-2.7c0.1-1.2,0.3-2.4-0.1-3.5c-0.4-1.1-1.4-2.1-2.6-2
	c-1.1,0.1-1.9,1.1-2.1,2.1s0,2.1,0.2,3.2C381.9,255.4,382.1,256.1,382.3,256.8z"/>
<path class="st3" d="M452.1,91c-1.4,2.1-2.9,4.2-5.1,5.5c-2.2,1.3-5.1,1.5-7.1-0.1c-2.1-1.8-2.3-4.9-2.1-7.7
	c0.1-1.1,0.2-2.1,0.5-3.2c0.5-1.8,1.7-3.3,2.9-4.7c1.5-1.7,3.1-3.3,5.1-4.3c2-1,4.5-1.1,6.4,0.1c2.3,1.4,3.1,4.5,2.7,7.1
	C455.1,86.4,453.6,88.7,452.1,91 M447.7,93.2c1.8-1.9,3.3-4,4.5-6.2c0.8-1.5,1.5-3.1,1.4-4.8c0-1.7-0.9-3.4-2.5-4.1
	c-2-0.8-4.3,0.5-6,1.9c-1.2,1-2.4,2.1-3.2,3.4c-0.5,0.9-0.8,1.8-1.1,2.7c-0.6,1.8-1.2,3.6-1,5.5c0.2,1.9,1.6,3.7,3.4,3.9
	C445,95.7,446.5,94.4,447.7,93.2z"/>
<path class="st3" d="M93.8,114.6c2.2,2.2,4,4.8,5.3,7.6c1.3,2.8,0,6.5-2.6,8.2c-2.6,1.7-6.1,1.7-9,0.4c-2.8-1.3-5.1-3.6-6.7-6.3
	c-1.2-2-2.2-4.2-2.3-6.6c-0.1-2.3,0.8-4.8,2.6-6.3c1.9-1.5,4.5-1.7,6.8-1C90.2,111.4,92.1,112.9,93.8,114.6 M85.3,113.2
	c-1.9-0.2-3.6,1.5-3.9,3.4c-0.3,1.9,0.4,3.8,1.3,5.4c2,3.6,5.6,6.8,9.7,6.6c2.1-0.1,4.4-1.6,4.4-3.7c0-0.9-0.5-1.8-0.9-2.6
	c-1.2-2.1-2.5-4.2-4.2-5.9C89.9,114.8,87.7,113.5,85.3,113.2z"/>
<path class="st2" d="M258.6,392.5c1.5-1.1,3.4-1.9,5.3-1.8c1.9,0.1,3.8,1.2,4.6,2.9c0.9,1.9,0.3,4.2-1,5.7c-1.3,1.5-3.3,2.4-5.4,2.7
	c-1.4,0.2-3,0-3.8-1.2c-0.4-0.6-0.4-1.3-0.5-1.9c-0.1-1.2-0.3-2.4-0.4-3.6c-0.1-0.5-0.1-1,0.1-1.5
	C257.6,393.2,258.1,392.8,258.6,392.5 M264.6,395.9c0.2-0.2,0.5-0.4,0.5-0.6c0.3-0.8-0.9-1.4-1.8-1.4c-1.3,0-2.9,0.9-2.6,2.1
	c0.2,0.7,1.1,1,1.8,0.9C263.3,396.8,264,396.4,264.6,395.9L264.6,395.9z"/>
<path class="st2" d="M473,9.1c11.8,12.2,21.1,26.8,27.2,42.7c0.4,1.1,0.8,2.3,0.4,3.4c-3.1,8.4-9,15.5-14.8,22.3l-11.2,13.1
	c-3.5,4.2-7.1,8.3-10.8,12.4c-18.7,20.7-40.7,38.8-66.3,49.9c-1,0.4-2,0.8-3,0.7s-2-1.2-1.7-2.2c3.2-11.8,6.3-24.2,3.8-36.1
	c-0.6-2.9-1.3-6.5,1.1-8.3c19.3-14.1,33.2-34.2,46.5-54c3.3-5,6.7-10,9.7-15.2c5.3-9.3,9.3-19.2,12-29.5c0.4-1.4,2.2-2.1,3.6-1.7
	C470.9,7,472,8.1,473,9.1z M464.7,24.3c-1.2-0.5-2.3,0.8-2.9,2c-0.7,1.2-1.3,2.5-2,3.7c-12.2,23-24.6,46.3-43.2,64.3
	c-1.8,1.7-3.7,3.8-3.4,6.2c1,7.8-3.1,16-10,19.8c-3.1,1.7-3.1,6.1-2.6,9.7c0.2,1.4,0.7,3.2,2.1,3.3c4.2,0.4,8.2,2.4,10.9,5.6
	c0.9,1,2.5,0.4,3.6-0.3c28.2-17.7,49.8-43.9,71-69.6c0.7-0.9,1.5-2,1.1-3.1c-3.2-9.1-2.7-19.5,1.4-28.2c-2.4-4.8-5.3-9.4-8.6-13.6
	C476.7,26.5,470.2,26.6,464.7,24.3z M397.9,148.3c1.1,0.6,2.5,0,3.6-0.6c2.9-1.5,5.7-3.3,8.4-5.2c0.7-0.5,0.9-1.5,0.7-2.4
	s-0.9-1.5-1.6-2c-2.2-1.6-5.2-2.1-7.7-1.1c-0.5,0.2-0.9,0.4-1.3,0.8c-0.4,0.5-0.5,1-0.6,1.6C398.8,142.4,398.3,145.3,397.9,148.3z
	 M477,18.2c-1.9-3.7-4.9-6.9-8.4-9.2c-1.2,1.1-1.5,2.8-1.7,4.5c-0.2,1.2-0.3,2.3-0.8,3.4c-0.2,0.3-0.4,0.7-0.6,1v0v0l0,0
	c-0.4,0.6-0.8,1.2-0.9,1.9c-0.2,1.1,0.7,2.4,1.7,2c0.8-0.3,1.7-0.1,2.6,0.1c0.5,0.1,0.9,0.2,1.4,0.2C472.9,22.3,475.2,20.2,477,18.2
	z M492.2,40.7c-2.1,4.1-1.7,8.9-1.4,13.4l0.5,6.5c0.1,0.7,0.4,1.7,1.1,1.5c0.4-1.2,1.2-2.2,2.1-3.2c0.7-0.9,1.4-1.7,1.9-2.8
	c1.6-3.4-0.2-7.4-1.9-10.8L492.2,40.7z M400.4,113.1c0.1,1.3,1.4,2.2,2.7,2.2c1.3,0,2.4-0.9,3.2-1.9c0.7-1,1.2-2.3,1.6-3.5l1.3-4
	c0.4-1.1,0.4-2.8-0.8-3c-0.4,0-0.8,0.2-1.2,0.4c-1.3,0.9-2.3,2.3-3.2,3.6l-2.5,3.6C400.9,111.3,400.3,112.1,400.4,113.1z
	 M98.3,102.4C89.4,86.1,83.7,68,81.7,49.6c-0.1-1.1-1.4-1.9-2.5-1.8C78,47.8,77,48.4,76,49c-13.8,8.5-25.5,20.4-33.9,34.2
	c-0.9,1.4-1.7,2.9-1.8,4.5c-0.1,1.6,0.5,3.2,1.1,4.6c9.3,21.8,24.8,40.3,40.5,58c12.1,13.6,25.1,27.4,42,34.3
	c2.7,1.1,6.7,1.6,7.9-1.2c0.3-0.8,0.3-1.7,0.3-2.5l0,0c-0.2-9.2,0.9-18.4,3.1-27.3c0.5-2.1,0.8-4.8-1.1-5.7
	c-7.3-3.4-12.2-10.1-16.9-16.7C110.5,121.8,103.8,112.5,98.3,102.4z M114,173.6c-1,0.3-2-0.4-2.8-1c-15.4-11.3-27.3-26.5-39-41.6
	l-20.7-26.6c3.5-2.2,3.9-7,4-11.2c0.1-5.4,0.2-10.9-1.8-15.9c-0.4-1.1,0.1-2.3,0.7-3.4c2.6-4.4,6.2-8.3,10.4-11.2
	c0.4-0.3,0.8-0.6,1.3-0.6c1.3-0.2,2.3,1.1,3,2.2c2.7,4.4,6.5,9.4,11.7,9c2-0.1,3.1,2.2,3.6,4.1c7.1,23.4,20.5,44.6,36.2,63.4
	c2,2.4,2.6,5.7,3.1,9c0.6,3.6,1.1,7.2,3.8,9.6c2.3,2,1.9,5.6,1.2,8.6c-0.1,0.6-0.3,1.3-0.7,1.7c-0.3,0.3-0.8,0.4-1.3,0.6L114,173.6z
	 M77.6,68c-2.8-2-5.3-4.5-7.1-7.4c-0.4-0.6-0.8-1.3-0.7-2.1c0.1-0.8,0.7-1.5,1.3-2c1.5-1.3,3.2-2.4,5-3.3c0.7-0.3,1.5-0.6,2.1-0.1
	c0.3,0.3,0.4,0.7,0.5,1.2l2.6,13c0.2,0.8-0.7,1.5-1.4,1.5C78.9,68.8,78.2,68.4,77.6,68z M51.8,93.2c-0.1,2.5-0.2,5.2-2.1,6.8
	c-0.4,0-0.6-0.4-0.8-0.7c-1.3-3.1-2.7-6.3-2.9-9.7c-0.2-3.4,0.9-7.1,3.7-9c0.4-0.3,0.9-0.5,1.3-0.2c0.1,0.1,0.2,0.3,0.2,0.5
	c0.8,2.8,0.7,5.7,0.6,8.6L51.8,93.2z M126.6,174.7c0.4,0.4,0.5,1,0.5,1.6l0.1,6.3c-2.6-1.4-5.1-3.1-7.4-4.9
	c-0.4-0.3-0.9-0.9-0.7-1.4c0.1-0.2,0.4-0.4,0.7-0.5c1.7-0.6,3.4-1.1,5.2-1.4C125.6,174.4,126.2,174.4,126.6,174.7z M126.8,149.9
	c0-0.3,0-0.6,0.1-0.8c0.4-0.6,1.4-0.1,1.8,0.6c1,1.5,1.2,3.5,0.6,5.2C127.9,153.6,127,151.8,126.8,149.9z M511.9,102
	c2.6-3.2,7.3-3.7,11.4-3.6c1,0,2,0.1,2.8,0.5c2.5,1.1,3,4.3,3.1,7c0.1,2.4,0.1,4.9-0.5,7.3s-1.8,4.7-3.8,6.1c-0.9,0.7-1.9,1.1-3,1.3
	c-1.7,0.3-3.4-0.2-5-0.7c-2.1-0.8-4.1-1.9-6-3.2c-0.9-0.7-1.8-1.5-1.8-2.6c-0.1-2.6,0.2-5.1,0.8-7.6
	C510.3,104.9,510.9,103.3,511.9,102z M518.6,118.2c3.3,0.9,6.8-1.6,8.1-4.8c1.3-3.2,0.8-6.8,0.1-10.2c-0.3-1.3-1.6-2-2.9-2.4
	c-2-0.5-4.1-0.6-6.1-0.2c-1,0.2-2,0.5-2.7,1.3c-0.4,0.4-0.6,0.9-0.9,1.4l-1.9,3.7c-0.3,0.6-0.7,1.3-0.9,2c-0.6,2.1,0.2,4.4,1.7,6
	C514.4,116.6,516.5,117.6,518.6,118.2z M474.3,155.2c3,1.1,5.8,2.9,7.9,5.3c1.8,2.1,3.2,4.8,2.8,7.5c-0.1,1-0.5,2-0.9,2.9
	c-1.6,3.5-4.4,6.8-8.1,7.5c-2,0.4-4-0.1-5.9-0.7c-2.2-0.8-4.3-1.8-6.2-3.1c-1-0.7-2-1.5-2.5-2.7c-0.3-0.8-0.3-1.7-0.3-2.5
	c0-2.1,0.2-4.2,0.9-6.2c0.9-2.5,2.7-4.6,4.7-6.4c0.8-0.7,1.6-1.5,2.6-1.9C470.8,154.3,472.6,154.7,474.3,155.2z M477.4,173.6
	c2.2-2.2,3.5-5.3,3.1-8.4c-0.3-3.1-2.4-5.9-5.3-7c-1.2-0.4-2.5-0.6-3.8-0.2c-0.7,0.2-1.3,0.5-1.9,0.9c-2.5,1.6-4.3,4.3-4.7,7.2
	c-0.4,2.9,0.5,6,2.4,8.3c1.2,1.4,3.3,2,5.2,1.8C474.3,175.9,476,174.9,477.4,173.6z M200.5,137.2c-0.1-1.4-2-1.8-3.5-1.8
	c-7.6,0.2-15.2,0.8-22.7,1.7c-1.2,0.2-1.3,2.1-0.3,2.9c1,0.8,2.4,0.6,3.6,0.4L200.5,137.2z M176.2,146.9c0.1-0.7,1-1,1.7-1.1
	l44.8-5.1c0.8-0.1,1.7-0.2,2.4,0.2c0.7,0.4,1.2,1.4,0.7,2c-0.3,0.5-1,0.6-1.6,0.6l-45.8,4.4C177.5,148.2,176.1,147.9,176.2,146.9z
	 M276.6,154.5c-2.5,0.6-5.1-0.4-7.5-1.3c-7.8-2.9-15.5-5.9-23.2-9c-3.1-1.2-6.5,0.6-9.3,2.5c-8.1,5.3-15.9,11.1-23.3,17.3
	c-1.9,1.6-4.9,0.5-6.8-1.1c-0.4-0.3-0.8-0.7-1.2-1c-1.5-1.3-3-2.7-5-2.9c-3-0.4-5.6,1.8-7.8,3.9l-14,13.6c-1.9,1.8-3.9,4.7-2.2,6.8
	c1.1,1.3,3.1,1.3,4.8,1.1c9-1,17.9-2.5,26.8-3.9h0l0,0c14.7-2.4,29.4-4.8,44.3-5.3c3.3-0.1,6.6-0.1,9.9-0.2c2.1,0,4.1,0,6.2-0.1
	c9.3-0.2,18.6-0.8,27.9-1.9c0.4-0.1,1-0.1,1.2-0.5c0.2-0.3,0.1-0.7,0.1-1l-3.9-26.7c-0.2-1.4-0.5-2.9-1.8-3.5
	c-1.3-0.6-2.7,0.2-3.8,1.1c-1.6,1.5-2.8,3.4-4.1,5.3C282,150.7,280,153.7,276.6,154.5z M212.9,169.1c8.4-6.9,17.1-13.3,26.2-19.3
	c1.9-1.2,4.1-2.5,6.2-1.7l21.9,8.5c3.7,1.4,7.7,2.9,11.4,1.7c4.4-1.3,7-5.7,9.2-9.7c0.4-0.8,1.7-0.7,2.3,0c0.6,0.6,0.8,1.6,0.9,2.5
	l1.6,11.1c0.2,1.7,0.5,3.5,0,5.1c-0.5,1.7-1.9,3.2-3.7,3.1c-28.2-0.5-56.5,1.8-84.3,6.9c-0.9,0.2-1.7,0.3-2.6,0.5l0,0
	c-6.6,1.3-13.3,2.5-20,2.5c3.3-4.6,7.4-8.5,11.5-12.4c2.2-2.1,5.1-4.4,8.1-3.7c1.6,0.4,2.9,1.5,4.1,2.7h0l0,0l0,0l0,0v0l0,0l0,0l0,0
	h0l0,0l0,0v0c0.4,0.4,0.8,0.7,1.2,1.1C208.5,169.5,211.2,170.5,212.9,169.1z M575.1,246.7c-0.7,0.3-1.6,0.1-2.3-0.2
	c-5.2-1.6-9.4-5.3-13.5-8.8c-0.6-0.5-1.1-1-1.7-1.4c-6.8-5.8-14.2-11-22.1-15.3c-0.8-0.4-1.6-0.9-2.1-1.7c-0.5-0.8-0.5-1.9,0.3-2.5
	c3.5-2.4,5.8-6.5,6-10.8c0-1.1,1.3-1.9,2.5-1.8c1.1,0.1,2.1,0.8,3,1.4l35.9,25.4c0.7,0.5,1.4,1.1,1.6,1.9c0.1,0.7-0.1,1.4-0.4,2
	c-1.5,3.4-3.3,6.7-5.3,9.9C576.4,245.7,575.9,246.4,575.1,246.7z M539.2,216.5c-0.4,0.7-0.8,1.8-0.1,2.3l29.3,22
	c1.6,1.2,4.1,2.3,5.4,0.8c1.4-1.8,2.8-3.7,4.1-5.6c0.3-0.5,0.7-1.1,0.6-1.8c-0.1-0.6-0.6-1-1-1.3c-10.7-8.7-22.1-16.6-34-23.7
	L539.2,216.5z M524.7,230c0.5-0.8,1-1.7,2-1.9c0.7-0.2,1.4,0.1,2.1,0.5c3.5,1.7,6.7,4,9.5,6.8c0.7,0.7,0.7,1.8,0.4,2.6
	s-0.9,1.6-1.5,2.4c-1,1.2-2,2.4-3.4,3c-1.5,0.6-3.3,0.3-4.7-0.5c-1.4-0.8-2.6-2-3.6-3.3c-1.3-1.7-2.5-3.7-2.3-5.8
	C523.2,232.5,524,231.2,524.7,230z M530.8,239.4c2.2,0.9,3.6,0.2,3.7-1.3c0-0.9-0.8-1.6-1.5-2.2l-2.2-1.7c-0.7-0.6-1.5-1.1-2.4-1.1
	c-0.9,0-1.9,1-1.5,1.8C526.8,235.3,528.6,238.5,530.8,239.4z M522.1,257.2c0.5,0.3,1.1,0.6,1.7,0.6c0.6,0,1.3-0.3,1.4-0.9
	c0.4-1.4,1.3-2.6,2.2-3.7c0.1-0.1,0.2-0.2,0.3-0.4c1-1.3,2-2.7,2-4.3c0-1.6-1.3-3.3-2.9-3.1c-1.3,0.2-2.4-0.6-3.3-1.5
	c-0.1-0.1-0.3-0.3-0.4-0.4c-0.8-0.8-1.5-1.5-2.5-1.9c-1.2-0.4-2.8,0.2-2.9,1.5c-0.2,2.5-2.3,4.4-4.3,6.1c-0.6,0.5-0.1,1.4,0.5,2
	C516.3,253.5,519.1,255.6,522.1,257.2z M522.5,252.4l-3.9-2.6c-1-0.7-0.9-2.3,0-3.1c0.9-0.8,2.2-0.9,3.3-0.5c1.1,0.4,2,1.2,2.9,1.9
	c0.6,0.5,0.7,1.4,0.4,2.2c-0.3,0.7-0.8,1.3-1.4,1.9c-0.2,0.2-0.4,0.4-0.7,0.4C523,252.7,522.7,252.6,522.5,252.4z M553,252.6l1.9-4
	c0.6-1.2,1.1-2.7,0.4-3.9c-0.3-0.4-0.7-0.7-1.1-0.9l-6.9-4.6c-0.7-0.5-1.5-1-2.4-1c-1.1,0-1.9,0.8-2.7,1.5c-1.1,1.1-2.2,2.3-3.1,3.6
	c-0.7,1-1.3,2.5-0.3,3.2l10.5,6.9c0.8,0.5,1.9,1.1,2.7,0.6C552.5,253.7,552.8,253.1,553,252.6z M550.7,249.7c-0.4,0.1-0.9,0-1.3-0.1
	c-2.6-0.8-5.1-2.3-6.9-4.4c-0.6-0.7-0.3-1.9,0.5-2.4c0.8-0.5,1.8-0.4,2.7,0c0.5,0.2,1,0.6,1.6,0.9c0.3,0.2,0.5,0.4,0.8,0.5
	c0.3,0.2,0.6,0.3,0.9,0.5c0.9,0.5,1.8,0.9,2.4,1.7C552.2,247.5,552,249.4,550.7,249.7z M554.2,254.2c1.2-0.3,1.6-1.5,2-2.8
	c0.3-1.1,0.6-2.2,1.5-2.8c1.4-1.1,3.4-0.2,4.9,0.7l4.8,2.9c0.8,0.5,1.6,0.9,2.1,1.6c0.6,0.7,0.8,1.7,0.4,2.5
	c-0.3,0.5-0.7,0.9-1.2,1.3c-0.4,0.3-0.8,0.6-1.1,1c-0.4,0.5-0.5,1.2-0.6,1.8c-0.2,0.8-0.3,1.6-0.9,2.1c-1.1,0.9-2.8,0.2-4-0.6
	l-6.8-4.2c-0.7-0.4-1.4-0.9-1.7-1.6C553.2,255.5,553.5,254.4,554.2,254.2z M563.2,258.3c1-0.3,1.8-1.1,2.5-1.8
	c0.5-0.5-0.2-1.3-0.8-1.7l-4.2-2.3c-0.4-0.2-1-0.5-1.4-0.1c-1.1,1.2-1.2,3.1-0.4,4.5C559.8,258.2,561.6,258.9,563.2,258.3z
	 M515.3,258.2c-0.9-0.3-1.9-0.5-2.6-1.1c-1.2-0.8-2.8-0.6-4.1,0.1c-1.2,0.7-2.2,1.9-3.1,3c-0.5,0.6-1,1.3-1.2,2
	c-0.2,0.8,0,1.7,0.7,2.1l7.3,4.1c0.6,0.3,1.2,0.6,1.8,0.5c0.6-0.1,1-0.7,1.4-1.2l1.9-2.6c1-1.4,2.1-3.3,1.4-4.9
	C518.1,259,516.7,258.6,515.3,258.2z M513,264.9c-0.4,0.1-0.8-0.1-1.1-0.3l-5-2.5c1-1.3,2.8-1.9,4.4-1.7c1.6,0.2,3.2,0.9,4.7,1.6
	l-2.3,2.4C513.5,264.6,513.3,264.8,513,264.9z M478.7,164c0.8,1.2,0.5,2.7,0,4c-0.7,1.7-1.8,3.3-3.4,4.2c-1.6,0.9-3.7,1-5.3,0.1
	c-1.6-1-2.3-3.2-1.5-4.8c0.2-0.4,0.5-0.7,0.7-1.1c0.3-0.3,0.5-0.6,0.7-1c0.1-0.2,0.2-0.5,0.3-0.7c0.1-0.4,0.3-0.7,0.5-1
	c0.8-1.1,2.4-1.3,3.7-1.3C476.1,162.4,477.8,162.7,478.7,164z M475.2,164.8c-2.1,0-4.1,1.8-4.4,3.9c-0.1,0.9,0.3,1.9,1.1,2.1
	c0.6,0.1,1.2-0.4,1.7-0.9c0.9-1,1.7-2.2,2.4-3.4c0.2-0.4,0.4-0.9,0.1-1.3C475.9,164.8,475.5,164.8,475.2,164.8z M526.3,109.1
	c-0.2-2-1.5-3.9-3.4-4.4c-2.4-0.6-4.8,1.1-6.7,2.7c-0.6,0.5-1.2,1-1.4,1.7c-0.4,1.2,0.3,2.4,1,3.5c0.8,1.2,1.7,2.3,2.9,3.1
	c1.2,0.8,2.8,1.1,4.1,0.4c0.6-0.3,1.1-0.9,1.6-1.5C525.7,112.9,526.5,111,526.3,109.1z M520.9,114.1c-0.8,0.1-1.7-0.2-2.3-0.8
	c-0.9-0.8-1.3-2.2-0.9-3.4c0.3-1.3,1.4-2.3,2.7-2.6c1.3-0.3,2.7,0.1,3.6,1.1c0,0.3-0.1,0.5-0.1,0.8h0c-0.1,0.9-0.2,1.8-0.5,2.6
	C523,112.9,522.1,113.9,520.9,114.1z M455.9,419.2c4.5-15.8,12.9-30,21.2-44.1c1.4-2.4,3.1-5,5.9-5.5c1.1-0.2,1.6-1.3,2-2.4
	c4.5-12.7,4.9-26.7,1.2-39.6c-1.1-3.7,0.2-7.6,1.5-11.2l10-28c-1-1.8-3-2.6-5-3.4c-1.7-0.7-3.4-1.3-4.5-2.6
	c-3.3-3.6-0.8-9.4,1.8-13.6l45.7-73.1c1.9-3,6-3.9,9.4-3.1c3.4,0.8,6.4,3,9.2,5.1l33.3,24.9c6,4.5,12.5,10.1,12.2,17.6
	c-0.2,4.1-2.5,7.8-4.8,11.2l-26.4,39.8c-3.4,5.1-3.8,11.4-4.2,17.7v0c-0.2,2.8-0.4,5.7-0.8,8.4c-2.3,13.4-11.2,24.6-19.8,35.2
	c-0.3,0.4-0.7,0.9-1,1.3c-8.9,11-17.7,23.4-18.2,37.5c-0.6,16.9-8.6,33.4-21.5,44.2l11.2-27.2c2.7-6.5,5.1-14.5,0.7-19.9
	c-2-2.4-5.1-3.7-8-4.9l-17.4-7.2c-1.2-0.5-2.4-1-3.7-1c-4.1,0-6.5,4.4-8.1,8.1C471.8,396.1,464.6,408.2,455.9,419.2z M513.3,382.2
	c3,1.1,7.2,1.8,8.6-1.1c6.9-13.8,13.9-27.9,24.8-38.8c6.3-6.3,10.2-14.7,12.3-23.3c2.2-8.6,2.8-17.6,3.4-26.4
	c-2.7,1-2.9,4.5-2.9,7.4c0,6.2-1.1,12.4-3.2,18.3c-0.4,1.2-1,2.5-2.2,3.1c-1.2,0.5-3-0.5-2.6-1.8c3.1-9.5,4.2-19.6,3.4-29.6
	c-0.3-3.1-0.8-6.4-3-8.6c0.2,4.9,0.5,9.8,0,14.6c-0.9,8.4-3.9,16.4-6.8,24.3c-0.4,1-0.9,2.1-1.8,2.6c-1,0.5-2.5-0.3-2.3-1.3
	l4.5-18.5c2.5-10.2,4.9-21.1,1.1-30.8c-1.9-0.1-2.4,2.6-2.2,4.5c1.2,13.1-2.4,26.1-6,38.7c-0.4,1.5-1.9,3.3-3.1,2.3
	c-0.5-0.4-0.5-1.2-0.5-1.9c0.2-3.7,1.2-7.3,2.3-10.9c0.3-1.1,0.6-2.2,0.9-3.4c2.7-10.3,3.4-21.1,2-31.7c-2.4,3-3.4,6.9-4.3,10.6
	l-5.6,22.1c-2.5,10-5.8,20.9-14.6,26.3c-0.7,0.4-1.5,0.8-2.3,0.6c-1-0.2-1.6-1.3-2-2.2c-5.6-12.6-6.3-27.4-1.9-40.5
	c0.3-0.8-0.5-1.6-1.4-1.7c-0.8-0.1-1.6,0.4-2.3,0.9c-7.2,5.1-10,14.3-12.2,22.8l-3,11.3c-0.4,1.7-0.9,3.3-1,5
	c-0.1,2.6,0.5,5.1,1.2,7.7c0.2,0.6,0.3,1.2,0.5,1.8c2.9,11.7,1.6,24.5-3.7,35.4c-0.8,1.6,1.3,3.1,2.9,3.7L513.3,382.2z M524.7,274.3
	c-1.2-0.8-2.5-1.8-2.9-3.2c-0.6-2.2,1.5-4.3,3.7-4.6c2.2-0.3,4.4,0.8,6.2,2.1c2.6,1.8,5.9-0.9,7.8-3.4c-2.6-1.6-5.1-4-5.2-7
	c-0.1-3,3.6-5.9,6.1-4.1c1,0.7,2.1,1.1,3.3,1.5c1.7,0.6,3.4,1.2,4.3,2.7c1.1,1.7,0.7,4-0.4,5.7c-1.1,1.7-2.8,2.9-4.4,4.1
	c2.3,0.2,4.6,1.1,6.6,2.4l2.1-6.2c0.2-0.5,0.3-1,0.7-1.3c0.7-0.6,1.9-0.4,2.8-0.2c2.4,0.8,4.8,2,6.4,4c1.6,2,2.3,4.9,1.2,7.2
	c-1.1,2.3-4.3,3.5-6.4,2.1c-0.4-0.3-0.9-0.7-1.3-1.1c-1.2-1-2.4-2.1-3.5-1.2c3.5,2.7,6,6.9,6.6,11.3c11.1-16.9,22.1-33.9,33-51
	c1-1.6,1.9-4.2,0.2-5.1c-7.2-4-13.6-9.4-20-14.7c-8-6.8-16-13.5-25.7-17.4c-0.6-0.3-1.3-0.5-1.9-0.3c-0.7,0.2-1.1,0.8-1.6,1.3
	c-18,23.4-34.1,48.3-48.1,74.2c-2,3.6,0.7,7.9,3.2,11.2c1.3,1.6,3.7,3.4,5,1.8c1.7-1.9,4.6-3,7-2.2c2.4,0.9,4,4,2.6,6.3
	c-1,1.6,0.9,3.4,2.6,4.3c3.3,1.8,6.7,3.4,10.1,4.9c0.5,0.2,1,0.4,1.5,0.2c0.4-0.2,0.6-0.8,0.8-1.2l3.8-13.1c0.6-2.2,1-5-0.8-6.2
	L524.7,274.3z M592.9,237.5c-0.5-0.2-1,0.3-1.3,0.8l-28.5,42.7c-0.8,1.1-1.6,2.3-1.8,3.7c-0.2,1.4,0.3,3,1.5,3.6
	c2.1,1,4.2-1.1,5.5-3l26.5-37.6c2-2.8,0.3-6.6-1.4-9.6C593.3,237.9,593.1,237.6,592.9,237.5z M512.5,294.6c-0.5-0.4-1.3-0.1-1.7,0.3
	c-0.4,0.5-0.6,1.1-0.8,1.7c-0.4,1.5-0.8,3-0.8,4.5c-0.1,1.5,0.2,3,0.5,4.6l2.7,14.9c0.1,0.6,0.2,1.3,0.7,1.7c0.4,0.5,1.3,0.6,1.7,0
	c4-5.9,8.1-11.9,10.3-18.8c0.3-0.9,0.3-2-0.5-2.4C520.3,299.5,516.2,297.3,512.5,294.6z M544.1,257.9c-1.4-1.3-3.2-2.1-5.1-2.3
	c-1.7-0.2-2.7,2.2-1.9,3.8c0.8,1.5,2.5,2.3,4.1,2.9c1.1,0.5,2.5,0.9,3.5,0.2C546.1,261.5,545.3,259.2,544.1,257.9z M532.8,275.2
	c0.6-0.4,0.6-1.2,0.5-1.9c-0.6-2.5-3.3-3.8-5.8-4.5c-1-0.3-2.1-0.5-2.8,0.3c-0.6,0.6-0.4,1.6,0,2.3c0.5,0.7,1.2,1.1,2,1.5l3.8,2.1
	C531.2,275.3,532.1,275.6,532.8,275.2z M554.6,266.1c-0.8,1.1-0.7,2.7-0.1,3.8c0.7,1.2,1.8,2,3.1,2.5c0.4,0.2,0.9,0.4,1.3,0.3
	c0.4-0.1,0.7-0.3,1-0.7c0.9-1.2,0.5-3-0.6-4c-1-1.1-2.5-1.6-3.8-2.1c-0.2-0.1-0.5-0.2-0.7,0c0,0,0,0-0.1,0
	C554.6,266,554.6,266,554.6,266.1z M171,364.4c0.5-3.9,1.3-8.2,4.3-10.7c2.5-2,5.8-2.3,9-2.4c10.3-0.2,20.7,1.5,30.4,4.9
	c3.1,1.1,6.3,2.5,8,5.3c1.8,3,1.4,6.8,0.9,10.3l-7.8,54.3c5.4-15.7,9.3-31.9,11.5-48.4c1.1-7.7,1.4-16.5-3.9-22.1
	c-8.4-8.7-8.1-21.2-7.9-33.8c0.2-10.9,0.4-22-4.9-31c-1.7-2.9,2.1-6,5.3-7.1c14.2-5,29.3-7.2,44.3-6.7c2.8,21.7,3.5,43.7,2.2,65.6
	c-0.3,4.9,6.7,6.2,11.6,5.6l169.4-18.8c0.8-0.1,1.8-0.2,2.4-0.8c0.7-0.7,0.7-1.8,0.7-2.8c-0.4-39.7-1.5-79.4-3.4-119
	c-0.1-1.5-0.3-3.3-1.6-4.2c-1-0.7-2.2-0.6-3.4-0.5l-120.9,11.7c7.9-37.5,15.9-75.6,12.3-113.7c-26.4,17.6-60.5,17.5-92.2,15.6
	c-1.3-0.1-2.6-0.2-4-0.2c-30.5-1.8-62.3-3.7-89.8,9.5c14.4,38.1,28.9,79.6,17,118.6c-1.1,3.4-2.3,6.8-3.6,10.2
	c-1.9,5.2-3.9,10.4-5.1,15.8c-2,8.9-1.7,18.9,3.6,26.4c7.7,10.8,13.7,23.1,15.1,36.3c1.3,12.5-1.6,24.9-4.6,37.3
	c-3.1,12.9-6.1,25.9-4.3,38.9c0.3,2.2,0.9,4.6,2.6,6L171,364.4z M183,207.2c3.2,0.1,4.5,4.1,4.9,7.3l3.2,25.2
	c-6.3-3.3-15.2,2.3-15.1,9.4c-5.3-10.3-6.1-22.1-6.9-33.8c-0.2-2.5-0.3-5.1-0.6-7.6c-2.4-26.9-10.5-52.9-18.5-78.6
	c-1.1-3.7,3.8-6.1,7.6-6.6c25-3.7,50.3-3.2,75.6-2.7c11.5,0.2,22.9,0.5,34.4,0.3c20.3-0.3,41.8-2.2,58.3-14.1
	c3.7,24.7-1.3,49.6-6.3,74.3c-0.7,3.3-1.3,6.7-2,10c-5.4,27.8-9.2,57.5,1.3,83.9c0.4,1.1-1.1,2-2.2,2.2c-8.6,1.8-17.4,2.2-26.1,1.1
	c-3.7-0.4-7.4-1.1-11.1-1.9c-2.8-0.5-5.6-1.1-8.4-1.5c-21.1-3.2-43,0.1-62.2,9.3c-0.8,0.4-1.7,0.2-2.5-0.1c-3.9-1.3-6.7-4.9-8.1-8.8
	c-1.4-3.9-1.6-8.1-1.8-12.2l-0.8-17.3c0-0.6,0.1-1.5,0.8-1.5c33.7-1.1,67.3-3.3,100.8-6.8c-1.4-7.9-1.6-16.1-0.4-24
	c0.7-5-4-9.6-9-10.3c-5-0.7-10,1.6-14.2,4.5c-1.6,1.1-3.1,2.3-4.6,3.4c-2.5,2-5,3.9-7.8,5.4c-1.8,1-4,1.8-5.9,1
	c-2.4-1-3.1-3.8-3.8-6.3c0-0.2-0.1-0.3-0.1-0.5c-0.9-3.2-2.4-6.4-5.1-8.4c-2.7-2-6.7-2.5-9.3-0.5c-2.2,1.8-3,4.8-3.3,7.7
	c0,0.3-0.1,0.5-0.1,0.8c-0.3,2.6-0.7,5.3-2.2,7.4c-1.7,2.3-5.5,3.3-7.4,1.1c-3.7-4.3-10.2-5.2-15.6-3.7c-5.4,1.5-10.1,5-14.6,8.4
	c-2.7-4.3-3-10-0.6-14.5l0-0.1c0.4-0.8,1-1.8,0.6-2.7c-0.2-0.5-0.8-0.9-1.3-1.1C189.1,203.2,185,204.3,183,207.2z M279.4,279.3
	c1.8,0.4,4,1.2,4.1,3c1.1,17.4,14.9,33,31.9,36.9c17,3.9,35.9-3.9,45.8-18.3c9.9-14.3,10.7-34.3,2.6-49.7
	c-8.7-16.5-29.9-25.3-47.8-19.8c-0.8-3.7-0.7-7.5,0.3-11.1c0.2-0.7,0.4-1.4,1-1.8c0.5-0.4,1.2-0.5,1.9-0.6l50.3-6.1
	c4.4-0.5,8.9-1.1,13.3-1.1c19.2-0.2,38.3-2.1,57.1-5.7c2.9,39.3,4.3,78.6,4.1,118c0,1.9-0.6,4.3-2.4,4.4
	c-31.7,0.9-63.1,5.1-94.5,9.3c-21.1,2.8-42.3,5.6-63.5,7.4c-4.7,0.4-9.5,0.8-14.2,0.3c-0.9-0.1-1.8-0.3-2.3-1
	c-0.3-0.4-0.3-1-0.3-1.5l-2.8-63c0-0.8,0-1.8,0.7-2.2c0.5-0.3,1.1-0.2,1.6-0.1L279.4,279.3z M192.7,264.8c-0.5,3.3-1.1,7,1.1,9.4
	c8,9.2,16.3,19.1,18.4,31.1c1,5.6,0.6,11.4,0.1,17.1c-0.5,7.2-1.1,14.5,1.2,21.3c0.1,0.2,0.1,0.4,0.2,0.5c0.4,1.2,0.9,2.4,0.7,3.7
	c-0.2,1.5-1.4,2.9-2.9,2.7l-16.7-2.9c-5.5-1-11.4-1.9-16.6,0.1c-1,0.4-2.2-0.3-2.7-1.2s-0.6-2.1-0.7-3.2c-0.1-1.3-0.1-2.6-0.1-3.9
	c-0.3-8.3-0.5-16.8-4.4-24.1l-12.3-23.3c-1.8-3.4-3.7-7-3.8-10.9c-0.1-2.6,0.6-5.1,1.3-7.6l6.1-22.1c1.3-4.6,2.7-9.4,5.7-13.2
	c7.4,12.6,8.2,28.9,1.9,42.1c-0.6,1.2,1.2,2.5,2.5,2c1.3-0.5,1.9-1.9,2.3-3.1c1.8-5.1,2.4-10.5,3-15.9c0.5-4.4,1-8.7,2.1-13
	c0.7-2.6,1.7-5.2,3.7-7c2-1.8,5.3-2.4,7.4-0.7c1.6,1.3,2.1,3.5,2.4,5.5c0.8,5.4,0.8,10.8,0,16.2
	C192.8,264.5,192.8,264.6,192.7,264.8z M221.6,221.2c2.5,1.9,4.9,3.7,7.8,3.4c3.8-0.4,6.1-4.3,7.2-7.9c0.2-0.8,0.5-1.6,0.7-2.4
	c0.8-2.9,1.5-5.8,3.5-8c0.6-0.6,1.4-1.2,2.2-1c0.7,0.2,1.1,0.9,1.4,1.5c0.4,0.9,0.9,1.8,1.3,2.7c1.2,2.5,2.3,5.1,4,7.3
	c2.3,3,5.9,5.3,9.6,4.9c3.3-0.4,6-2.7,8.5-5c0.5-0.5,1-0.9,1.6-1.4c6.1-5.3,14.1-8.4,22.2-8.6c-1.1,2.7-0.4,5.7,0.4,8.6
	c0.2,0.7,0.3,1.4,0.5,2.1c1.1,5.5,0.6,11.3-1.6,16.4l-54.1,4.2c-12.6,1-25.3,1.9-38,1.5c-0.8,0-1.6-0.1-2.4-0.4
	c-1.4-0.6-2.2-2.1-2.5-3.6c-0.7-3.3,0.9-6.8,3.2-9.3c2.3-2.5,5.3-4.1,8.3-5.8c3.1-1.7,6.5-3.4,10-2.7
	C217.6,218.2,219.6,219.7,221.6,221.2z M324,300c-8.2-0.2-15.3-6.9-17.7-14.7c-0.5-1.6,0.5-3.4,2-4.2c1.4-0.9,3.1-1.1,4.8-1.3
	l12-1.4c-3.7-7.1-6.3-14.7-7.7-22.6c-0.1-0.7-0.2-1.5,0-2.1c0.4-1.2,1.7-1.8,2.9-2.2c9.8-3.3,21.5,0.7,27.2,9.2
	c5.7,8.5,5,20.9-1.7,28.7c-2.9,3.4-6.7,5.9-10.8,7.8C331.5,298.8,327.8,300.1,324,300z M362.9,257.8c1.5,4.8,1.9,9.9,2.1,14.9
	c-3.3-0.5-6.6-0.8-9.9-0.8c-0.6-8.5-6.3-16.1-13.7-20.2c-7.4-4.1-16.3-5-24.7-3.6c-0.1-1.2-0.3-2.4-0.5-3.7c-0.6-3.3-1.1-6.6,1-8.9
	c1.3-1.4,3.2-2,5.1-2.3c8.5-1.6,17.6,0.1,25,4.6C354.8,242.2,360.4,249.5,362.9,257.8z M302.8,284.5c0,0.2,0,0.3,0,0.5
	c-0.1,1.2,0.5,2.2,1,3.3c0.1,0.3,0.3,0.6,0.4,0.9c0.6,1.3,0.9,3.1-0.1,4.2c-2.5,2.6-4.8,5.4-6.6,8.5c-0.5,0.8-1.6,0.8-2.4,0.4
	c-0.8-0.5-1.2-1.3-1.7-2c-2.8-4.9-5.7-10-6-15.6c0-0.7,0-1.5,0.7-1.9c0.3-0.1,0.6-0.1,0.9-0.1l12.5,0c0.3,0,0.6,0,0.9,0.1
	C303,282.9,302.9,283.7,302.8,284.5z"/>
</svg>
