<?xml version="1.0" encoding="utf-8"?>
<!-- Generator: Adobe Illustrator 27.3.1, SVG Export Plug-In . SVG Version: 6.00 Build 0)  -->
<svg version="1.1" id="Шар_1" xmlns="http://www.w3.org/2000/svg" xmlns:xlink="http://www.w3.org/1999/xlink" x="0px" y="0px"
	 viewBox="0 0 1764.8 1147.9" style="enable-background:new 0 0 1764.8 1147.9;" xml:space="preserve">
<style type="text/css">
	.st0{fill-rule:evenodd;clip-rule:evenodd;fill:#FFFFFF;}
</style>
<path id="_331458808" class="st0" d="M666.5,245.8c49.6,28,99.5,55.7,149.2,83.3c40.6,22.5,91.6,53.2,116.7,94.1
	c17,27.3,13.6,58.9-11.3,80.9c-9.1,8.1-17.4,9-30.3,9.7c1.8,7.1,4.6,11.9,7.9,18.1c32.6-3.6,73.4,0.8,104.8,6.6
	c1.5-0.9,0.6-4,2.7-4.6c2.2-0.5,7.2,1,13.1,3.1c5.8,2.2,12.4,5.1,15.2,5c2.9,0,1.9-2.9,1.3-5.2c-0.6-2.3-0.6-3.8,3.7-3.5
	c4.4,0.4,13.3,2.7,22,4.6s17.1,3.3,31.5,4.4c14.4,1,34.5,1.5,48.3,3.3c13.7,1.8,20.9,5,27.2,8.5c6.3,3.5,11.8,7.2,15.5,11.3
	c3.7,4.2,5.6,8.6,8.2,12.2c2.5,3.6,5.5,6.4,7.5,9.5c2.1,3.2,3.1,6.8,5,10.3c1.8,3.5,4.6,6.9,5.4,11.3c0.9,4.4-0.1,9.7-2.4,15.3
	c-2.4,5.4-6.2,11.1-10.9,15.2c-4.7,4.1-10.2,6.7-14.1,8c-3.9,1.4-6.1,1.2-6.6,0.4c-0.6-0.8,0.4-2.6,1.3-4.4c0.8-1.8,1.3-3.6,0.5-4.7
	c-0.8-1-3.1-1.2-5.9-0.5c-2.7,0.7-5.9,2.3-9,3.4c-3.1,1.2-6.1,2-15,3.5c-9,1.5-23.7,3.6-36.4,6.3c-9.6,2-41.6,11.8-50.7,16.8
	c24,7.5,58.1,12.8,82.7,12.6c4.5,0,46.6-3.2,51-7c-2.9-13.1,2.9-27.5,11.6-37.3c13.2-14.8,34.2-21.5,54.4-21.4
	c22.9,0.2,40.7,6.6,61.4,15.7c35.1,15.4,67.2,34.4,100.2,53.6c34,19.9,64.3,33.4,101.5,46.4c-6.2,7.9-19.7,17.4-26.8,20.9
	c19,12.7,39.2,22.9,59.5,33.3c23,11.8,48.9,24.9,73.7,32.4c19.5,5.8,40.4,10.9,60.7,12.4c-10.7,16-37.8,25.3-55.7,25.7
	c-14.5,20.2-43.3,37.3-73.5,32.8c-21.3,9.4-40.6,12.2-63.9,10.3c-21.7-1.7-42.8-9.8-62.6-18.5c5.5,30-22,51.2-50.2,50.9
	c-7.1,9.2-21,14.6-37.9,9.9c-13,12.1-29.6,4.5-34.6,3.2c-0.4,5.2-11.9,18.6-16.3,24c-0.5-15.9-3.7-31.6-11.8-45.5
	c-12.3-21.1-29.7-36.8-49.3-51c-25.4-18.3-52-34-79.7-48.5c-16.4,21.4-34.6,31.2-60.8,16.6c-6.7,5.8-28.5,4.3-35.9-0.7
	c-15.9,5.5-33.7-2.4-43.9-12.4c-13-1-24.7-2.7-35.4-13.8c-10.8,0.6-25.5-6.7-29.9-16.8c-9.1-0.9-23.4-2.5-31-12.1
	c-7.6,0.3-14.5-2.2-20.9-6.4c-4.6-3-8.6-7.4-10.7-13.3c-2.1-5.8-2.3-13.1-0.8-19.9c-15.6,0.7-31.3,1.1-42.8,0.6
	c-11.4-0.4-19.6-1.1-24.3-2.6c-4.8,4.4-16.4,12.3-26,17.7c-9.7,5.3-21.4,9.8-29.4,12.8c-8.1,3.1-12.4,4.8-16.2,6.6
	c-3.7,1.8-6.9,3.7-8.8,5.2c-2,1.4-2.9,2.5-3.3,3.9c22,4.4,44.4,11.1,61.9,25.8c16.6,13.9,27.5,37.1,22.9,59
	c-1.3,5.7-3.9,13.1-7.8,18.6c-3.8,5.5-8.7,9-14.4,11.2c-5.6,2.2-12,3.1-19.9,3c-7.9-0.3-17.4-1.6-25.2-3.8
	c-7.8-2.1-13.8-5.3-19.2-8.5c-5.4-3.2-10.2-6.3-13.8-9.1c-3.5-2.7-6.1-4.9-8.2-7c-2-2.1-4-4.1-6.9-4.8c-2.9-0.7-7-0.3-11.1-0.1
	c-4,0.2-8.1,0.1-14.9-1.4c-6.7-1.5-16.3-4.5-25.3-9.1c-8.9-4.6-17.5-10.7-23.2-15.4c-5.6-4.7-8.5-8-11.1-11.5
	c-2.5-3.6-4.9-7.5-7.3-9.6c-2.2-2.2-4.5-2.9-6.7-4.7c-2.1-1.8-4.2-4.7-5.4-6.9c-1.2-2.2-1.4-3.7-1.9-5.1c-0.4-1.6-1-3-3.5-4.2
	c-2.6-1.1-7.2-1.8-11.5-2c-4.4-0.3-8.5-0.1-14.1-0.2c-5.6-0.1-12.7-0.4-19.6-0.7c-6.9-0.4-13.8-0.7-17.6-2.4
	c-3.7-1.5-4.3-4.4-3.5-6.9c0.8-2.6,3.1-4.6,5.1-6.9s3.7-4.9,5.4-7.4c1.7-2.5,3.4-4.8,4.3-6.3c0.9-1.6,1.3-2.5,1.4-3.3
	c-9.8-1.8-19.5-4.3-26.4-6.4c-6.8-2-10.9-3.7-13.7-5.8c-2.9-2.1-4.6-4.7-1.6-6.4c3.1-1.7,10.9-2.6,18.6-3.4
	c7.6-0.9,15.1-1.8,23.6-4.4c8.4-2.5,17.8-6.7,24-9.8c3.4-1.8,27.6-14.9,28.2-19c-21.3,0.6-45.1,2.4-65.1,9.6
	c-21.4,7.6-43.4,17-59.7,33.5c-2.9,2.9-7.6,7.4-9.2,9.4c-2.1-1-3.1-4.1-4-6.7s-1-6-1-9.1c0-3,0-5.7-0.9-8.7
	c-1.1-3.1-3.4-6.3-5.6-9.7c-2.1-3.5-4-6.9-4.9-9.6c-0.8-2.8-0.7-4.9-0.6-7.1c-0.1-2.1-0.4-4.4-1.2-6.3c-0.9-2-2.3-3.8-3.5-5.9
	c-1-2.1-1.7-4.3-2.3-7.4c-0.6-3.1-1.3-6.8-1.5-10.5c-0.4-3.6-0.4-7.1-3.1-10.8c-2.8-3.5-8.2-7.2-11.8-11.2c-3.7-3.9-5.5-8-7.6-12.6
	c-2-4.6-4.2-9.6-6.4-14.1c-2.3-4.5-4.5-8.4-6.2-12.7c-1.6-4.2-2.6-9-5.4-14.2c-2.8-5.2-7-11.1-10.7-19c-3.7-7.8-6.6-17.8-8.4-28
	c3.1,0.6,6.2,1.4,11.4,3.4c5.3,2,12.9,5.4,26.6,9.3c13.6,4,33.3,8.6,50.3,11.6c17.3,2.9,32,4.1,45.6,5c13.7,0.8,26.3,1.5,42.5,0.7
	c16.4-1,36.5-3.2,50.1-5.2c13.5-2,20.7-3.6,28.7-5.2c8.1-1.7,25.2-4.2,32.5-7.5c-16.2-8-20.3-44.2-6.9-56.5
	c-11.2-8.6-20.8-17.4-34.2-25.3c-8.4-5-19.4-11.2-27.9-15.4c-8.6-4.4-14.5-6.6-23.6-9.7c-9.1-3.1-21.5-7-30.9-9
	c-9.4-2.1-16-2.2-22.2-2c-6.2,0.3-12.1,1.1-19,4.3c-6.8,3.1-14.4,8.8-18.7,12.3c-4.3,3.5-5.1,4.8-6.3,5.9c-1.1,1.2-2.5,2.2-3.9,1.8
	c-1.3-0.4-2.3-2.4-3-5.3c-1.3-5.8-1.1-16.5,1.1-22.2c-11.6-2.1-22.6-25.7-23.2-34.9c-19.1-4.2-29.2-26-27.5-42.4
	c-11.8-10.6-17.3-25.4-13.5-40.4c-16-23.7-17.2-42.9,4.7-63.8c-19.8-16.7-41.5-38.6-50.3-63.4c-6.2-17.4-6.1-35.8-2.6-53.7
	c-7.8-18.2-2.6-40.3,2.6-55.3c-4.3-9-3-29.6-0.6-39.4c16.7,20,34.9,35.9,56,50.9c34.8,25,81.5,58.9,120.2,77.8
	c1.4-10.4,2.1-19.5,1.4-30c11.1,8.6,22.2,17.2,31.3,24c31.5,23.9,64,43.6,98.3,63.2L666.5,245.8z M653.1,822.8
	c1.4-3.2,3.6-7.6,3.8-10.7c0-3.1-2.6-4.7-3.9-4.5c-1.2,0.1-1.2,2.2-2.3,4.8c-1.1,2.7-3.2,5.7-4.2,8.7c-1.1,3-1.2,6.1-0.2,7.6
	c1,1.4,2.9,1.3,4.1,0.4C651.4,827.8,651.7,826,653.1,822.8L653.1,822.8z"/>
</svg>
