<svg version="1.2" xmlns="http://www.w3.org/2000/svg" viewBox="0 0 1080 1920" width="1080" height="1920">
	<title>Новый проект</title>
	<style>
		.s0 { fill: #ffffff } 
	</style>
	<path id="_331458808" fill-rule="evenodd" class="s0" d="m810.8 1369.7c0.1 39.5 1.3 77.5 6.6 116.7 1.5 11.3 3.5 25.2 5.5 39.1-8.8-5.7-17.1-9.6-26.8-13.5-2.6 43 4 100.3 8.6 142.9 2.7 25.8 7.6 49.4 16.8 73.8-9.7-2.7-28.3-11.7-34-19.9-15.6-2.8-37.4-9.2-49.4-24.9-17.3-5.8-33.4-14.7-45.5-28.7-17.2-19.9-25.6-49.6-30.4-75-29 8.8-45.2-1.7-57.9-27.3-14.9-4-25.1-16.1-28.5-31.6-15.1-6.6-29.2-26.1-23.4-44.8-7.7-5.1-22.9-26.3-19-37.4-6.1-0.9-15.5-6-19.9-10-2.2-2-3.4-3.9-3.1-5.2 0.3-1.4 1.9-2.1 3.5-2.5 1.6-0.5 3.2-0.6 8.3-2.6 5.2-2 13.8-5.8 19.9-10.2 6.2-4.4 9.8-9.2 13.1-14.4 3.3-5.3 6.4-11.1 9.2-20.3 2.9-9.2 5.6-21.9 7.4-31.3 1.8-9.4 2.8-15.7 3.2-25.3 0.5-9.5 0.5-22.1 0.3-31.9-0.3-15.5-3.2-28.2-5.2-42.2-17.3 5.6-46.8-15.7-45.8-33.8-6.4 4.7-17 18.4-22.5 24.6-5.3 6.1-10.2 11.6-18.6 22.4-8.4 10.8-20.3 27.2-29.2 41-8.7 13.8-14.3 25.1-20.3 37.4-5.9 12.3-12.1 25.7-18.1 42.2-5.8 16.3-11.5 35.7-14.7 49.5-3.4 13.8-4.1 22.1-5 27.7-0.9 5.5-1.7 8.6-2.7 11.6-7.9-6.6-15.2-14-20.2-21.1-5.1-7.1-8.1-13.7-11.3-18.7-3.2-5-6.8-8.2-9.7-11.7-2.9-3.6-5.2-7.4-8-11.6-2.8-4.1-6.1-8.5-9.1-12.5-2.9-4.1-5.6-7.7-7.2-12.8-1.7-5.1-2.2-11.6-3.9-15.8-1.9-4.2-4.9-5.9-7.9-8-3.1-2-6-4.4-8.4-6.5-2.4-2-4-3.7-5.3-5.6-1.2-2-2.1-4.1-3.4-5.9-1.3-1.7-3.1-3.1-4.9-4.2-2-1-3.9-1.9-5.9-4-1.9-2.1-3.9-5.5-5.9-9-1.9-3.5-3.6-7.1-5.7-9.6-2.1-2.3-4.5-3.6-7.1-5.1-2.7-1.5-5.6-3.2-7.4-5.3-1.8-2.1-4.1-4.5-3.9-6.8 2.5-0.4 8.8-2.3 12.7-3.4 22.3-6.1 41.3-20.6 58.5-35.5 16.1-13.9 29.4-33.8 40.4-52-3.8-1.5-27.2 13.1-30.4 15.2-5.7 3.9-14 10-20.3 16.1-6.4 6.1-10.9 12.2-15.4 18.4-4.5 6.3-9.1 12.6-12.1 14.5-3 1.8-4.4-0.9-4.8-4.5-0.4-3.5 0.1-7.9 1.7-14.8 1.5-7 4.2-16.7 7.4-26.1-0.8-0.3-1.8-0.4-3.6-0.4-1.8 0.1-4.6 0.5-7.6 0.7-3 0.3-6.1 0.5-9.1 1.1-3 0.6-5.9 1.6-8.5 1-2.6-0.5-4.8-2.4-4.3-6.4 0.4-4.1 3.5-10.3 6.6-16.5 3.1-6.2 6.3-12.5 9-17.4 2.7-4.9 4.9-8.4 6.8-12.4 1.9-3.9 3.6-8.2 3.9-11 0.2-2.8-0.7-4-1.9-5.1-1-1.2-2.2-2.1-3.5-4.2-1.4-2.1-2.9-5.4-3.4-8.1-0.5-2.8 0-5.1-0.8-8.1-0.7-3.2-2.9-7.1-4.8-11.1-1.8-4-3.3-8.1-4.6-15.3-1.3-7.3-2.4-17.8-2-27.8 0.4-10.1 2.5-19.9 4.5-26.5 2-6.7 3.9-10.3 6.1-13.7 2.2-3.5 4.6-6.8 5.4-9.7 0.8-2.9 0-5.6-0.8-8.4-0.8-2.9-1.5-6.2-2.1-10.6-0.6-4.5-1-10.2-1.1-16.5-0.1-6.3 0.1-13.1 2.1-20.9 1.9-7.9 5.5-16.8 9.1-23.8 3.8-7 7.7-12.1 12.4-15.9 4.7-3.9 10.2-6.4 16.8-7 6.7-0.6 14.4 0.7 20 2.4 21.3 6.8 36.2 27.7 40.1 49 4.2 22.5-1 45.3-8 66.6 1.4 0.3 2.8 0 5-1 2.3-0.9 5.5-2.8 8.9-5.1 3.4-2.5 7-5.4 13.7-10.9 6.6-5.5 16.2-13.5 25.6-19.3 9.4-5.7 22-11.9 28.2-13.9 1-4.8 4.4-12.3 9.7-22.4 5.2-10.2 13.3-23.7 21.6-36.9-6.6-2-12.9-5.8-16.9-10.5-4.1-4.8-6-10.4-6.3-15.9-0.5-7.7 0.7-14.9 4.7-21.4-4.6-11.3 1-24.5 4.7-32.9-6.6-8.8-5.7-25.2 0.1-34.3-4.4-14.8-0.1-25.8 5.4-37.6-3.7-13.8-1.8-33.1 10.8-44.3-0.7-8.9 8.7-28.6 17.1-31.6 0.2-30 17.7-41 44.4-44.8 1-31.3 0.5-62.2-3-93.3-2.7-24-7.8-46.9-20.1-68-8.1-13.9-20.2-24.4-33.8-32.7 6.9-1.2 24.2-4.6 28.9-2.4 1.3-5 2.9-23.2 19.8-28.6 4.2-17 15.8-26.4 27.3-28.1 13.6-24.7 45.6-38.2 69-18.7 2.2-21.5 5.5-43.9 14.7-63.6 9.8-21.3 21.7-36.7 40.4-50.6 10.9-28.6 40-45.2 64.7-47.9 9.2-15.3 30.6-34.4 49.8-35.8-8.7 18.4-14.6 39.1-19.1 58.9-5.6 25.3-7 54.3-8 80.1-0.9 22.8-2 45.4-0.3 68.2 6.6-4.4 21.5-11.5 31.4-13-6.9 38.8-10.1 71.8-9.5 111.2 0.5 38.2 1.3 75.5-2.6 113.6-2.3 22.5-5.5 41.2-16.6 61.2-9.8 17.6-26 32.6-45.4 36.8-12.8 2.7-28.2 0.7-38.2-8.3-5.5 2-29 37.1-31.2 41-12.2 21.3-24.4 53.6-29.7 78.2 8.9-5.5 33.1-28.5 39.6-35.9 8.6-9.7 17.7-21.5 23.4-28.6 5.7-7 7.8-9.2 10.4-11.3 2.5-2.1 5.5-4.1 7.4-6.1 2-2.1 3-4.2 2.5-5.4-0.5-1.3-2.4-1.7-4.3-1.9-2-0.1-4.1-0.1-4.5-1-0.4-0.9 0.5-2.9 3.6-5.6 3-2.7 8-6.2 13.9-8.3 5.9-2 12.7-2.6 18.6-2 6 0.7 11.1 2.4 14.5 5.4 3.4 2.9 5.1 7 7.2 10.3 2.1 3.4 4.7 6 6.5 9.4 1.7 3.3 2.7 7.3 4.6 11.2 1.9 4 4.8 7.8 6.6 13.1 1.7 5.2 2.3 11.8 2.2 19-0.1 7.2-0.8 15.1-6 27.9-5.2 12.9-14.7 30.7-20.9 43.7-6.2 13.1-9.1 21.1-11.7 29.6-2.6 8.5-5 17.4-6.8 21.4-1.9 3.9-3.2 3.1-4.9 1.5-1.7-1.6-3.8-3.9-5.2-1.4-1.4 2.4-2.2 9.6-3.1 15.7-1 6.1-2.2 11.2-3.7 12.9-1.5 1.6-3.8-0.8-5.3 0.1-10.4 30.2-26.6 67.9-45.8 94.5 3.8 5.9 6.6 10.7 11.9 15.8 7-10.9 11.9-17.7 23.4-21.6 31.4-10.8 60.6 1.8 76 30 23.2 42 24.9 101.5 24.5 147.9-0.4 56.9-0.9 113.9-0.9 170.9zm-508.4-271.9c-3.5-0.3-5.2-1-6.7-0.6-1.4 0.6-2.4 2.2-1.7 3.8 0.8 1.6 3.5 3 6.7 3.5 3.1 0.6 6.7 0.2 9.6 0.6 2.8 0.3 4.6 1.3 5.3 0.3 0.8-1 0.7-4.1-2-5.6-2.8-1.4-7.7-1.6-11.2-2z"/>
</svg>