<?xml version="1.0" encoding="utf-8"?>
<!-- Generator: Adobe Illustrator 27.3.1, SVG Export Plug-In . SVG Version: 6.00 Build 0)  -->
<svg version="1.1" id="_Шар_1" xmlns="http://www.w3.org/2000/svg" xmlns:xlink="http://www.w3.org/1999/xlink" x="0px" y="0px"
	 viewBox="0 0 642 121" style="enable-background:new 0 0 642 121;" xml:space="preserve">
<style type="text/css">
	.st0{enable-background:new    ;}
	.st1{fill:#1D1D1B;}
</style>
<g class="st0">
	<path class="st1" d="M53.4,75.4v11.9c0,7.3-1.8,12.8-5.3,16.7c-3.5,3.9-8.8,5.8-15.7,5.8s-12.1-1.9-15.7-5.8
		c-3.5-3.9-5.3-9.5-5.3-16.7V40.7c0-7.3,1.8-12.8,5.3-16.7c3.5-3.9,8.8-5.8,15.7-5.8s12.1,1.9,15.7,5.8c3.5,3.9,5.3,9.5,5.3,16.7
		v8.7H40.1v-9.6c0-3.2-0.7-5.5-2-6.8c-1.3-1.3-3.1-2-5.3-2c-2.2,0-4,0.7-5.3,2c-1.3,1.3-2,3.6-2,6.8v48.4c0,3.2,0.7,5.5,2,6.8
		c1.3,1.3,3.1,1.9,5.3,1.9c2.2,0,4-0.6,5.3-1.9c1.3-1.3,2-3.5,2-6.8V75.4H53.4z"/>
	<path class="st1" d="M76.8,108.8H62.4V19.2h12.5v53.6l14.5-53.6h17.7v89.6H94.4V43.9L76.8,108.8z"/>
	<path class="st1" d="M156.8,32h-16.4v54.5c0,4.5-0.6,8.2-1.7,11.1c-1.1,2.9-2.6,5.2-4.5,6.8c-1.9,1.7-4,2.8-6.5,3.5
		c-2.4,0.7-5,1-7.6,1c-1.3,0-2.4,0-3.5,0s-2.1-0.1-3.3-0.3V96c0.8,0.1,1.6,0.1,2.4,0.1c0.9,0,1.7,0,2.4,0c2.2,0,4.1-0.6,5.7-1.7
		c1.6-1.1,2.4-3.4,2.4-6.9V19.2h44.5v89.6h-14.1V32z"/>
	<path class="st1" d="M181.2,108.8V19.2h14.1v33.7h6.7c7.1,0,12.4,1.9,15.8,5.6c3.5,3.8,5.2,9.3,5.2,16.5v11.6
		c0,7.3-1.7,12.8-5.2,16.5c-3.5,3.8-8.7,5.6-15.8,5.6H181.2z M201.9,96c2.2,0,3.9-0.6,5.1-1.8c1.2-1.2,1.8-3.4,1.8-6.7V74.1
		c0-3.2-0.6-5.5-1.8-6.7c-1.2-1.2-2.9-1.8-5.1-1.8h-6.7V96H201.9z"/>
	<path class="st1" d="M243.4,108.8h-14.1V19.2h14.1v38.4h16V19.2h14.3v89.6h-14.3V70.4h-16V108.8z"/>
	<path class="st1" d="M283.9,108.8V19.2H298v33.7h6.7c7.1,0,12.4,1.9,15.8,5.6c3.5,3.8,5.2,9.3,5.2,16.5v11.6
		c0,7.3-1.7,12.8-5.2,16.5c-3.5,3.8-8.7,5.6-15.8,5.6H283.9z M304.7,96c2.2,0,3.9-0.6,5.1-1.8c1.2-1.2,1.8-3.4,1.8-6.7V74.1
		c0-3.2-0.6-5.5-1.8-6.7c-1.2-1.2-2.9-1.8-5.1-1.8H298V96H304.7z M332.6,19.2h14.1v89.6h-14.1V19.2z"/>
	<path class="st1" d="M371.4,108.8h-14.5V19.2h12.5v53.6l14.5-53.6h17.7v89.6h-12.7V43.9L371.4,108.8z M394.9,3.7v10.5h-31V3.7
		H394.9z"/>
	<path class="st1" d="M450.1,73.1l-4.4,8.2v27.5h-14.1V19.2h14.1v39l18.7-39h13.8l-19.6,39.9l19.6,49.7h-14.5L450.1,73.1z"/>
	<path class="st1" d="M505.4,19.2c7.1,0,12.4,1.9,15.8,5.6c3.5,3.8,5.2,9.3,5.2,16.5V53c0,7.3-1.7,12.8-5.2,16.5
		c-3.5,3.8-8.7,5.6-15.8,5.6h-6.7v33.7h-14.1V19.2H505.4z M498.7,32v30.3h6.7c2.2,0,3.9-0.6,5.1-1.8c1.2-1.2,1.8-3.4,1.8-6.7V40.4
		c0-3.2-0.6-5.5-1.8-6.7c-1.2-1.2-2.9-1.8-5.1-1.8H498.7z"/>
	<path class="st1" d="M578.2,108.8H564l-2.4-16.3h-17.3l-2.4,16.3h-12.9l14.3-89.6h20.6L578.2,108.8z M546.1,80.4h13.6l-6.8-45.3
		L546.1,80.4z"/>
	<path class="st1" d="M599.1,108.8h-14.5V19.2h12.5v53.6l14.5-53.6h17.7v89.6h-12.7V43.9L599.1,108.8z M622.6,3.7v10.5h-31V3.7
		H622.6z"/>
</g>
</svg>
