<svg width="1440" height="500" viewBox="0 0 1440 500" fill="none" xmlns="http://www.w3.org/2000/svg">
<mask id="mask0_133_52" style="mask-type:alpha" maskUnits="userSpaceOnUse" x="0" y="0" width="1440" height="500">
<rect width="1440" height="500" fill="#D9D9D9"/>
</mask>
<g mask="url(#mask0_133_52)">
<path d="M857.114 735.639C889.051 703.826 907.05 660.635 907.158 615.558C907.179 581.94 897.213 549.073 878.526 521.128C859.838 493.182 833.271 471.418 802.194 458.594C771.118 445.771 736.933 442.468 703.976 449.104C671.019 455.739 640.776 472.014 617.083 495.864C593.479 519.596 577.421 549.78 570.929 582.617C564.437 615.453 567.801 649.477 580.599 680.406C593.396 711.335 615.056 737.788 642.851 756.438C670.647 775.088 703.337 785.101 736.809 785.216H736.81C781.898 785.292 825.17 767.459 857.114 735.639ZM910.764 615.556L910.013 632.625C909.593 636.241 909.06 639.836 908.525 643.443C908.222 645.482 907.919 647.525 907.635 649.578C907.248 652.384 906.596 655.142 905.877 657.906C905.658 658.745 905.433 659.587 905.207 660.431C904.693 662.355 904.175 664.289 903.727 666.234C902.875 669.934 901.559 673.484 900.231 677.065C899.569 678.852 898.904 680.646 898.292 682.47C887.482 710.764 869.913 735.984 847.117 755.928C824.319 775.875 796.986 789.94 767.503 796.896C738.019 803.851 707.282 803.486 677.972 795.832C648.662 788.178 621.671 773.468 599.353 752.985C580.452 735.556 565.375 714.393 555.076 690.835C544.769 667.082 539.452 641.465 539.453 615.572L540.547 596.242C541.147 591.631 541.916 586.871 542.681 582.137C542.953 580.452 543.225 578.769 543.488 577.098C544.152 572.89 545.388 568.792 546.635 564.656C547.264 562.57 547.896 560.474 548.459 558.349C549.594 554.068 551.295 549.998 553.008 545.901C553.787 544.038 554.568 542.169 555.3 540.271C565.63 516.745 580.714 495.61 599.604 478.193C618.304 461.176 640.223 448.076 664.067 439.666C709.639 424.022 759.498 426.63 803.19 446.943C846.878 467.255 881.005 503.693 898.417 548.615C899.073 550.582 899.754 552.528 900.433 554.467C901.645 557.93 902.85 561.373 903.892 564.881C905.245 569.433 906.228 574.114 907.21 578.785C907.405 579.716 907.6 580.645 907.799 581.574C908.792 586.228 909.325 590.967 909.86 595.731C909.962 596.639 910.064 597.548 910.17 598.457L910.764 615.556Z" fill="#8DD9FF" stroke="#8DD9FF"/>
<path d="M919.26 691.162L919.26 691.163C914.444 703.201 908.597 714.8 901.785 725.831C894.846 736.873 886.849 747.214 877.909 756.708L877.905 756.711C859.419 776.707 837.16 792.849 812.411 804.209C787.661 815.568 760.909 821.92 733.695 822.899C706.48 823.878 679.341 819.464 653.84 809.913C628.338 800.362 604.978 785.861 585.103 767.246C574.886 757.544 565.632 746.877 557.47 735.393L557.469 735.391C549.213 723.875 542.244 711.488 536.687 698.453L536.686 698.449C525.329 672.312 519.469 644.118 519.469 615.62C519.469 587.122 525.329 558.929 536.686 532.791C548.061 506.853 564.537 483.468 585.133 464.027C605.029 445.465 628.39 431.01 653.88 421.49C679.371 411.97 706.489 407.571 733.682 408.547C760.875 409.522 787.608 415.852 812.351 427.175C837.094 438.498 859.36 454.59 877.875 474.531L877.877 474.534C886.815 484.011 894.802 494.343 901.723 505.38C908.546 516.41 914.403 528.009 919.228 540.047L919.229 540.048C928.884 564.038 933.726 589.694 933.48 615.553L933.98 615.558L933.48 615.563C933.744 641.452 928.913 667.139 919.26 691.162ZM913.857 688.909L913.438 688.735L913.857 688.909C923.532 665.662 928.538 640.739 928.589 615.559C928.672 567.991 911.06 522.094 879.178 486.792C847.297 451.49 803.424 429.308 756.094 424.56C708.764 419.812 661.36 432.838 623.102 461.104C584.843 489.369 558.465 530.854 549.098 577.49C539.731 624.126 548.044 672.579 572.421 713.425C596.798 754.272 635.496 784.592 680.989 798.488C726.481 812.384 775.516 808.863 818.556 788.61C861.596 768.357 895.565 732.819 913.857 688.909Z" fill="#8DD9FF" stroke="#8DD9FF"/>
<path d="M940.064 699.777L940.063 699.781C929.381 726.747 913.62 751.411 893.638 772.435L893.636 772.436C867.722 799.993 835.355 820.665 799.455 832.587C763.556 844.51 725.253 847.307 688.002 840.728C650.751 834.149 615.723 818.4 586.08 794.901C556.436 771.403 533.108 740.895 518.201 706.128L518.201 706.127C505.887 677.526 499.536 646.713 499.536 615.574C499.536 584.435 505.887 553.622 518.2 525.021C530.529 496.624 548.419 470.984 570.817 449.613C592.604 428.999 618.24 412.882 646.261 402.183C674.282 391.484 704.137 386.414 734.119 387.262C764.101 388.109 793.621 394.859 820.993 407.124C848.364 419.39 873.049 436.93 893.637 458.743L893.638 458.744C903.635 469.237 912.597 480.67 920.399 492.883C928.08 505.105 934.661 517.984 940.064 531.37L940.064 531.37C950.881 558.107 956.33 586.712 956.101 615.554L956.601 615.558L956.101 615.562C956.33 644.414 950.881 673.029 940.064 699.777ZM950.114 615.559C950.171 562.667 930.556 511.644 895.083 472.413C859.609 433.181 810.812 408.545 758.182 403.295C705.552 398.044 652.85 412.556 610.325 444.006C567.8 475.457 538.492 521.599 528.1 573.46C517.708 625.32 526.975 679.192 554.099 724.599C581.222 770.006 624.264 803.703 674.853 819.136C725.443 834.57 779.965 830.637 827.816 808.102C875.667 785.567 913.426 746.042 933.752 697.212C944.521 671.335 950.081 643.588 950.114 615.559Z" fill="#8DD9FF" stroke="#8DD9FF"/>
<path d="M960.775 708.33L960.773 708.333C948.921 737.983 931.455 765.067 909.337 788.098L909.335 788.1C880.85 817.96 845.396 840.279 806.156 853.056C766.916 865.832 725.117 868.665 684.512 861.3C643.906 853.936 605.765 836.604 573.511 810.86C541.257 785.117 515.9 751.767 499.715 713.805L499.313 713.977L499.715 713.805C486.469 682.75 479.641 649.336 479.641 615.574C479.641 581.811 486.469 548.397 499.715 517.342C512.999 486.453 532.315 458.527 556.531 435.199C592.439 400.901 637.744 378.066 686.674 369.601C735.604 361.137 785.947 367.428 831.29 387.671C845.988 394.287 860 402.33 873.125 411.684C886.129 421 898.269 431.466 909.399 442.955C931.51 465.986 948.984 493.057 960.868 522.69L960.868 522.691C972.83 552.179 978.864 583.734 978.628 615.554L979.128 615.558L978.628 615.561C978.825 647.356 972.759 678.879 960.775 708.33ZM971.732 615.058C971.642 557.034 950.041 501.096 911.095 458.067C872.037 414.916 818.326 387.832 760.408 382.084C702.489 376.335 644.502 392.333 597.724 426.966C550.946 461.599 518.72 512.391 507.313 569.465C495.906 626.54 506.134 685.817 536.007 735.769C565.88 785.721 613.263 822.778 668.942 839.733C724.621 856.689 784.615 852.33 837.259 827.506C889.903 802.681 931.433 759.166 953.772 705.421C965.623 676.94 971.758 646.407 971.826 615.559L971.827 615.058H971.732Z" fill="#8DD9FF" stroke="#8DD9FF"/>
<path d="M736.8 886.42L736.799 886.42C682.533 887.784 629.112 872.789 583.482 843.385C537.853 813.98 502.127 771.527 480.949 721.546L480.491 721.74L480.949 721.545C466.74 688.022 459.418 651.984 459.418 615.574C459.418 579.164 466.74 543.126 480.949 509.603C502.201 459.687 537.943 417.296 583.55 387.913C629.156 358.531 682.53 343.509 736.768 344.79C807.417 346.568 874.579 375.87 923.937 426.449C973.296 477.029 1000.95 544.886 1001 615.559L1001 616.058H1001.03C1001.02 686.61 973.437 754.373 924.162 804.884C874.771 855.515 807.512 884.784 736.8 886.42ZM973.857 713.755L973.417 713.572L973.857 713.754C986.766 682.625 993.423 649.259 993.446 615.558C993.455 551.991 969.823 490.692 927.145 443.581C884.468 396.47 825.794 366.914 762.535 360.661C699.276 354.408 635.952 371.905 584.877 409.749C533.802 447.593 498.627 503.08 486.191 565.419C473.755 627.758 484.947 692.494 517.591 747.04C550.236 801.585 601.999 842.04 662.815 860.539C723.632 879.038 789.154 874.258 846.642 847.128C904.13 819.999 949.474 772.46 973.857 713.755Z" fill="#8DD9FF" stroke="#8DD9FF"/>
<path d="M462.244 729.316L462.244 729.316C439.36 675.156 433.345 615.353 444.985 557.722C456.625 500.09 485.379 447.31 527.489 406.278C568.655 366.236 620.708 339.215 677.144 328.589C733.58 317.964 791.896 324.206 844.805 346.535C897.713 368.865 942.868 406.291 974.627 454.138C1006.39 501.985 1023.34 558.131 1023.37 615.558C1023.43 682.984 1000.16 748.353 957.5 800.57C914.844 852.788 855.434 888.638 789.353 902.035C723.272 915.432 654.591 905.55 594.966 874.067C535.342 842.585 488.448 791.441 462.244 729.316ZM994.033 722.12L994.033 722.119C1008.02 688.332 1015.24 652.127 1015.28 615.558C1015.3 546.536 989.637 479.977 943.298 428.824C896.958 377.67 833.251 345.579 764.564 338.791C695.877 332.003 627.12 351.003 571.665 392.097C516.209 433.191 478.019 493.441 464.521 561.13C451.024 628.819 463.183 699.108 498.634 758.33C534.085 817.551 590.295 861.472 656.332 881.549C722.369 901.627 793.513 896.426 855.928 866.96C918.344 837.493 967.57 785.867 994.033 722.12Z" fill="#8DD9FF" stroke="#8DD9FF"/>
<path d="M1022.75 497.109C1037.96 534.361 1045.75 574.222 1045.68 614.453L1045.58 614.348L1045.58 615.561C1045.81 656.203 1038.03 696.491 1022.66 734.119C1007.3 771.746 984.667 805.973 956.057 834.84L956.055 834.842C927.454 864.04 893.459 887.412 855.955 903.661C798.86 928.147 735.777 935.118 674.714 923.69C613.651 912.262 557.36 882.949 512.985 839.473C483.335 810.228 459.791 775.384 443.722 736.964C427.652 698.544 419.377 657.313 419.377 615.668C419.377 574.022 427.652 532.792 443.722 494.372C459.791 455.952 483.335 421.108 512.984 391.864C557.385 348.397 613.696 319.096 674.773 307.68C735.851 296.263 798.943 303.244 856.047 327.737C893.531 343.954 927.523 367.27 956.15 396.401L956.151 396.402C984.758 425.265 1007.39 459.487 1022.75 497.109ZM1037.18 615.558C1037.16 541.175 1009.47 469.46 959.498 414.359C909.531 359.258 840.858 324.708 766.832 317.427C692.806 310.147 618.718 330.656 558.974 374.967C499.229 419.278 458.099 484.224 443.58 557.177C429.061 630.129 442.192 705.874 480.418 769.683C518.645 833.492 579.235 880.805 650.408 902.422C721.581 924.038 798.25 918.414 865.506 886.642C932.762 854.87 985.799 799.222 1014.3 730.517L1013.84 730.325L1014.3 730.517C1029.39 694.068 1037.17 655.007 1037.18 615.558Z" fill="#8DD9FF" stroke="#8DD9FF"/>
<path d="M1067.8 615.228L1067.7 615.292L1067.7 615.56C1067.88 659.07 1059.47 702.187 1042.97 742.446C1026.47 782.706 1002.2 819.319 971.536 850.192L971.534 850.193C925.216 897.271 865.995 929.58 801.34 943.048C736.684 956.516 669.489 950.539 608.226 925.871L608.225 925.871C567.211 909.409 529.883 884.949 498.417 853.917C466.887 822.734 441.857 785.606 424.773 744.684C407.69 703.761 398.894 659.856 398.894 615.511C398.894 571.166 407.69 527.261 424.773 486.339C441.857 445.416 466.887 408.288 498.417 377.105L498.417 377.105C545.348 330.652 604.986 299.14 669.808 286.547C734.629 273.953 801.728 280.842 862.638 306.344C923.548 331.846 975.54 374.818 1012.05 429.838C1048.52 484.785 1067.91 549.288 1067.8 615.228ZM1059.21 616.058H1059.3L1059.3 615.558C1059.26 535.723 1029.53 458.757 975.897 399.624C922.26 340.491 848.55 303.419 769.097 295.615C689.645 287.811 610.13 309.834 546.013 357.401C481.897 404.968 437.761 474.68 422.188 552.981C406.616 631.283 420.719 712.577 461.756 781.057C502.793 849.537 567.831 900.309 644.223 923.5C720.615 946.691 802.902 940.643 875.083 906.533C947.264 872.423 1004.18 812.689 1034.76 738.945L1034.76 738.944C1050.86 699.969 1059.16 658.221 1059.21 616.058Z" fill="#8DD9FF" stroke="#8DD9FF"/>
<path d="M987.108 865.7L987.107 865.701C937.707 915.676 874.616 949.904 805.789 964.069C736.962 978.235 665.482 971.702 600.363 945.297L600.187 945.73L600.362 945.297C556.86 927.683 517.288 901.606 483.942 868.58L483.94 868.578C450.316 835.67 423.553 796.42 405.199 753.101C386.845 709.781 377.264 663.252 377.011 616.205C376.759 569.158 385.84 522.528 403.728 479.014C421.616 435.499 447.957 395.965 481.226 362.698C514.495 329.432 554.031 303.094 597.546 285.208C641.061 267.323 687.692 258.245 734.738 258.5C781.785 258.755 828.314 268.339 871.633 286.696C914.951 305.053 954.199 331.818 987.105 365.444L987.108 365.447C1019.83 398.337 1045.76 437.356 1063.39 480.272C1081.03 523.188 1090.03 569.159 1089.89 615.556L1090.39 615.558L1089.89 615.56C1090.03 661.962 1081.02 707.936 1063.39 750.857C1045.75 793.777 1019.83 832.802 987.108 865.7ZM1081.49 615.558C1081.48 530.138 1049.71 447.772 992.349 384.478C934.985 321.185 856.131 281.49 771.122 273.113C686.114 264.735 601.028 288.275 532.413 339.154C463.799 390.032 416.559 464.612 399.884 548.389C383.208 632.166 398.288 719.15 442.191 792.425C486.093 865.7 555.68 920.026 637.416 944.839C719.153 969.652 807.198 963.178 884.425 926.675C961.653 890.172 1022.54 826.25 1055.26 747.341C1072.56 705.56 1081.47 660.781 1081.49 615.558Z" fill="#8DD9FF" stroke="#8DD9FF"/>
<path d="M469.436 882.931L469.436 882.93C429.791 843.594 399.38 795.941 380.402 743.415C361.424 690.89 354.353 634.804 359.699 579.212C365.046 523.62 382.676 469.909 411.316 421.963C439.957 374.017 478.891 333.033 525.306 301.973C571.721 270.913 624.457 250.553 679.703 242.365C734.948 234.176 791.322 238.364 844.751 254.625C898.18 270.886 947.329 298.814 988.646 336.391C1029.96 373.967 1062.41 420.254 1083.66 471.905C1102.3 517.493 1111.81 566.302 1111.63 615.556L1112.13 615.558L1111.63 615.559C1111.7 689.989 1089.72 762.772 1048.45 824.717C1007.19 886.661 948.49 934.989 879.777 963.597C811.063 992.205 735.414 999.811 662.381 985.454C589.348 971.097 522.207 935.42 469.436 882.931ZM1103.42 616.058H1103.54L1103.54 615.558C1103.49 524.685 1069.65 437.078 1008.59 369.775C947.528 302.472 863.621 260.281 773.182 251.409C682.743 242.537 592.236 267.617 519.262 321.771C446.288 375.926 396.062 455.284 378.351 544.415C360.64 633.545 376.711 726.077 423.438 804.017C470.164 881.956 544.207 939.733 631.168 966.11C718.129 992.488 811.791 985.582 893.943 946.735C976.094 907.888 1040.86 839.876 1075.65 755.926L1075.65 755.926C1093.95 711.562 1103.38 664.045 1103.42 616.058Z" fill="#8DD9FF" stroke="#8DD9FF"/>
<path d="M1133.47 615.557C1133.18 713.989 1096.29 808.795 1029.98 881.538C963.667 954.281 872.669 999.759 774.684 1009.13C676.698 1018.5 578.73 991.09 499.833 932.232C420.936 873.375 366.75 787.278 347.813 690.684C328.876 594.091 346.543 493.907 397.376 409.616C448.21 325.326 528.577 262.955 622.847 234.634C717.117 206.313 818.551 214.066 907.421 256.386C996.292 298.705 1066.25 372.566 1103.68 463.603C1123.47 511.813 1133.59 563.443 1133.47 615.557ZM1125.88 615.558C1125.87 519.055 1089.96 426.007 1025.14 354.512C960.326 283.016 871.235 238.183 775.195 228.732C679.156 219.282 583.035 245.889 505.526 303.38C428.017 360.87 374.661 445.134 355.834 539.783C337.008 634.432 354.058 732.699 403.668 815.474C453.278 898.249 531.901 959.614 624.247 987.634C716.592 1015.65 816.059 1008.33 903.301 967.075C990.543 925.825 1059.32 853.6 1096.27 764.448C1115.82 717.245 1125.89 666.652 1125.88 615.558Z" fill="#8DD9FF" stroke="#8DD9FF"/>
<path d="M1108.06 807.428C1060.2 899.478 979.815 970.439 882.54 1006.51C785.264 1042.58 678.05 1041.19 581.746 1002.6C485.443 964.003 406.934 890.974 361.489 797.708C316.043 704.443 306.909 597.609 335.863 497.983C364.817 398.356 429.788 313.059 518.143 258.679C606.497 204.299 711.919 184.723 813.906 203.758C915.893 222.794 1007.16 279.08 1069.94 361.67C1132.73 444.261 1162.56 547.252 1153.63 650.615C1148.86 705.367 1133.38 758.648 1108.06 807.428ZM1001.74 929.734L1001.43 929.37L1001.74 929.734C1043.04 894.882 1077.08 852.249 1101.93 804.261C1148.78 713.653 1160.26 608.857 1134.13 510.255C1108.01 411.653 1046.14 326.292 960.569 270.772C874.997 215.253 771.834 193.544 671.144 209.866C570.453 226.188 479.431 279.376 415.78 359.085C352.129 438.795 320.399 539.328 326.759 641.135C333.119 742.941 377.115 838.744 450.192 909.911C523.268 981.079 620.202 1022.52 722.141 1026.19C824.08 1029.85 923.738 995.472 1001.74 929.734Z" fill="#8DD9FF" stroke="#8DD9FF"/>
<path d="M1053.69 920.069C977.943 998.649 875.682 1046.25 766.79 1053.61C657.898 1060.98 550.16 1027.58 464.528 959.911C378.896 892.245 321.491 795.148 303.479 687.504C285.466 579.86 308.133 469.364 367.072 377.506C426.01 285.648 517.007 218.993 622.364 190.506C727.721 162.019 839.907 173.735 937.105 223.377C1034.3 273.018 1109.56 357.035 1148.25 459.089C1186.94 561.143 1186.29 673.937 1146.42 775.537C1125.29 829.33 1093.78 878.441 1053.69 920.069ZM910.481 1012.8L910.302 1012.39L910.481 1012.8C962.678 989.92 1009.87 957.004 1049.37 915.921C1123.88 838.322 1166.87 735.783 1169.98 628.246C1173.08 520.709 1136.08 415.861 1066.17 334.091C996.258 252.321 898.434 199.476 791.721 185.83C685.008 172.185 577.035 198.716 488.798 260.264C400.561 321.811 338.369 413.976 314.316 518.834C290.262 623.693 306.067 733.749 358.657 827.601C411.246 921.452 496.862 992.391 598.853 1026.62C700.844 1060.85 811.92 1055.92 910.481 1012.8Z" fill="#8DD9FF" stroke="#8DD9FF"/>
<path d="M1133.02 851.5C1074.32 949.676 981.211 1022.51 871.791 1055.85C762.37 1089.18 644.464 1080.63 540.999 1031.85C437.535 983.075 355.908 897.564 311.992 791.945C268.077 686.326 265.012 568.149 303.393 460.395C341.774 352.642 418.858 263.014 519.655 208.941C620.452 154.867 737.757 140.214 848.758 167.83C959.76 195.447 1056.52 263.358 1120.23 358.359C1183.94 453.36 1210.04 568.66 1193.46 681.836C1184.64 741.809 1164.11 799.46 1133.02 851.5ZM1009.49 981.32L1009.19 980.919L1009.49 981.32C1057.55 945.46 1098.1 900.499 1128.82 848.996C1186.75 751.737 1206.44 636.408 1184.06 525.438C1161.67 414.468 1098.82 315.79 1007.71 248.593C916.61 181.396 803.771 150.483 691.14 161.867C578.509 173.251 474.138 226.117 398.323 310.185C322.508 394.253 280.67 503.514 280.944 616.718C281.218 729.923 323.585 838.979 399.806 922.679C476.027 1006.38 580.653 1058.74 693.338 1069.58C806.023 1080.42 918.711 1048.96 1009.49 981.32Z" fill="#8DD9FF" stroke="#8DD9FF"/>
<path d="M1179.15 799.883L1179.09 799.858C1224.73 690.33 1228.08 567.747 1188.46 455.886C1148.79 343.868 1068.87 250.608 964.252 194.243C859.633 137.879 737.79 122.439 622.419 150.926C507.048 179.413 406.395 249.79 340.035 348.372C273.675 446.954 246.352 566.693 263.378 684.303C280.405 801.913 340.564 908.987 432.157 984.702C523.751 1060.42 640.23 1099.36 758.943 1093.96C877.656 1088.56 990.118 1039.2 1074.46 955.476C1119.13 911.12 1154.64 858.409 1178.96 800.344L1179.15 799.883ZM1182.23 801.711C1135.93 912.101 1050.23 1001.33 941.795 1052.04C833.361 1102.75 709.942 1111.32 595.541 1076.08C481.139 1040.84 383.931 964.317 322.821 861.385C261.711 758.453 241.067 636.472 264.903 519.163C288.74 401.855 355.352 297.604 451.788 226.685C548.224 155.765 667.589 123.246 786.671 135.451C905.753 147.656 1016.04 203.713 1096.08 292.721C1176.13 381.728 1220.21 497.324 1219.75 617.029C1219.48 680.456 1206.73 743.209 1182.23 801.711Z" fill="#8DD9FF" stroke="#8DD9FF"/>
<path d="M736.811 1118.77C1014.73 1118.77 1240.02 893.475 1240.02 615.558C1240.02 337.64 1014.73 112.344 736.811 112.344C458.893 112.344 233.597 337.64 233.597 615.558C233.597 893.475 458.893 1118.77 736.811 1118.77Z" stroke="#8DD9FF" stroke-miterlimit="10"/>
</g>
</svg>
